<svg xmlns="http://www.w3.org/2000/svg" width="28.94" height="27.846" viewBox="0 0 28.94 27.846">
  <g id="Group_1390" data-name="Group 1390" transform="translate(-1260 -106)">
    <path id="Icon_awesome-hand-holding" data-name="Icon awesome-hand-holding" d="M26.437,22.809a1.826,1.826,0,0,0-1.992,0l-4.321,2.815a3.427,3.427,0,0,1-1.871.533H12.721a.622.622,0,1,1,0-1.219h3.662a1.52,1.52,0,0,0,1.557-1.013c.154-.762-.566-1.424-1.478-1.424H8.979a6.326,6.326,0,0,0-3.465,1L3.339,24.938H.748A.692.692,0,0,0,0,25.547V29.2a.692.692,0,0,0,.748.609H17.435a3.45,3.45,0,0,0,1.871-.533l7.071-4.609A1.082,1.082,0,0,0,26.437,22.809Z" transform="translate(1261 103.033)" fill="none" stroke="#ff9ac1" stroke-width="2"/>
    <g id="Icon_feather-settings" data-name="Icon feather-settings" transform="translate(1264.5 105.5)">
      <path id="Path_102" data-name="Path 102" d="M17.841,15.67a2.17,2.17,0,1,1-2.17-2.17A2.17,2.17,0,0,1,17.841,15.67Z" transform="translate(-6.213 -6.213)" fill="none" stroke="#ff9ac1" stroke-width="2"/>
      <path id="Path_103" data-name="Path 103" d="M14.811,11.628a1.194,1.194,0,0,0,.239,1.317l.043.043a1.448,1.448,0,1,1-2.047,2.047L13,14.992a1.2,1.2,0,0,0-2.04.854v.123a1.447,1.447,0,1,1-2.894,0V15.9a1.194,1.194,0,0,0-.781-1.092,1.194,1.194,0,0,0-1.317.239l-.043.043A1.448,1.448,0,1,1,3.88,13.046L3.924,13a1.2,1.2,0,0,0-.854-2.04H2.947a1.447,1.447,0,1,1,0-2.894h.065A1.194,1.194,0,0,0,4.1,7.287a1.194,1.194,0,0,0-.239-1.317l-.043-.043A1.448,1.448,0,1,1,5.87,3.88l.043.043a1.194,1.194,0,0,0,1.317.239h.058A1.194,1.194,0,0,0,8.011,3.07V2.947a1.447,1.447,0,1,1,2.894,0v.065a1.2,1.2,0,0,0,2.04.854l.043-.043A1.448,1.448,0,1,1,15.035,5.87l-.043.043a1.194,1.194,0,0,0-.239,1.317v.058a1.194,1.194,0,0,0,1.092.723h.123a1.447,1.447,0,0,1,0,2.894H15.9a1.194,1.194,0,0,0-1.092.723Z" fill="none" stroke="#ff9ac1" stroke-width="2"/>
    </g>
  </g>
</svg>
