<svg version="1.1" x="0" y="0" width="800" height="800" viewBox="0 0 600 600" preserveAspectRatio="xMidYMid meet">
	<style type="text/css">
		.st0{fill:#70A5DA;}
				.st1{fill:#3BA0B9;}
				.st2{fill:#00559D;}
				.st3{fill:#005191;}
				.st4{fill:#1580A6;}
				.st5{fill:#137BA1;}
				.st6{fill:#D5F2F2;}
				.st7{fill:#408C6D;}
				.st8{fill:#66C590;}
				.st9{fill:#5BBD84;}
				.st10{fill:none;stroke:#E2E88A;stroke-miterlimit:10;}
				.st11{fill:#7B685C;}
				.st12{clip-path:url(#SVGID_2_);}
				.st13{fill:none;stroke:#A78066;stroke-linecap:round;stroke-miterlimit:10;}
				.st14{clip-path:url(#SVGID_2_);fill:none;stroke:#A78066;stroke-linecap:round;stroke-miterlimit:10;}
				.st15{fill:#5FDBB7;}
				.st16{fill:#5BCCB1;}
				.st17{clip-path:url(#SVGID_4_);}
				.st18{fill:#9ECFEB;}
				.st19{fill:none;stroke:#37395E;stroke-width:4;stroke-linecap:round;stroke-linejoin:round;stroke-miterlimit:10;}
				.st20{fill:none;stroke:#CCE2FF;stroke-width:6;stroke-linecap:round;stroke-miterlimit:10;}
				.st21{fill:#A78066;}
				.st22{fill:#9C775F;}
				.st23{fill:#37395E;}
				.st24{fill:#735846;}
				.st25{fill:#BA8F72;}
				.st26{fill:none;stroke:#A78066;stroke-width:0.5;stroke-linecap:round;stroke-miterlimit:10;}
				.st27{fill:none;stroke:#BA8F72;stroke-linecap:round;stroke-miterlimit:10;}
				.st28{fill:#CFC9C3;}
				.st29{fill:#E0DAD3;}
				.st30{fill:#B8B3AD;}
				.st31{fill:#3592AB;}
				.st32{fill:none;stroke:#4499B8;stroke-width:6;stroke-linecap:round;stroke-miterlimit:10;}
				.st33{fill:#76C976;}
				.st34{fill:#F1F793;}
				.st35{fill:#E2E88A;}
				.st36{fill:none;stroke:#F1F793;stroke-linecap:round;stroke-miterlimit:10;}
				.st37{opacity:0.35;fill:url(#SVGID_5_);}
				.st38{fill:#997159;}
				.st39{fill:none;stroke:#A78066;stroke-width:2;stroke-linecap:round;stroke-linejoin:round;stroke-miterlimit:10;}
				.st40{fill:#916B55;}
				.st41{fill:#EC9034;}
				.st42{fill:#EC7B34;}
				.st43{fill:#ECA934;}
				.st44{fill:#E6E6E6;}
				.st45{fill:none;stroke:#FFADC1;stroke-width:2.5;stroke-linecap:round;stroke-miterlimit:10;}
				.st46{clip-path:url(#SVGID_7_);fill:none;stroke:#B3896D;stroke-linecap:round;stroke-miterlimit:10;}
				.st47{fill:none;stroke:#916B55;stroke-miterlimit:10;}
				.st48{clip-path:url(#SVGID_9_);fill:none;stroke:#B3896D;stroke-linecap:round;stroke-miterlimit:10;}
				.st49{fill:none;stroke:#F1F793;stroke-width:2;stroke-linecap:round;stroke-miterlimit:10;}
				.st50{fill:none;stroke:#ECA934;stroke-width:2;stroke-linecap:round;stroke-miterlimit:10;}
				.st51{fill:#F8FFC5;}
				.st52{clip-path:url(#SVGID_11_);fill:none;stroke:#B3896D;stroke-linecap:round;stroke-miterlimit:10;}
				.st53{fill:none;stroke:#1580A6;stroke-width:3;stroke-linecap:round;stroke-miterlimit:10;}
				.st54{fill:#EC5C5C;}
				.st55{fill:none;stroke:#C44D4D;stroke-width:3;stroke-linecap:round;stroke-miterlimit:10;}
				.st56{fill:none;stroke:#ECA934;stroke-width:5;stroke-linecap:round;stroke-miterlimit:10;}
				.st57{fill:#D65353;}
				.st58{fill:#EFC7B0;}
				.st59{fill:#DE5656;}
				.st60{fill:#D6B29D;}
				.st61{fill:#8A6551;}
				.st62{fill:#BD885C;}
				.st63{fill:#F2B1A5;}
				.st64{fill:#BD9B7D;}
				.st65{fill:#423127;}
				.st66{fill:none;stroke:#FF6B6B;stroke-linecap:round;stroke-miterlimit:10;}
				.st67{fill:#E6AA9F;}
				.st68{fill:#FFADB2;}
				.st69{fill:none;stroke:#FFADB2;stroke-width:5;stroke-linecap:round;stroke-miterlimit:10;}
				.st70{fill:#E69CA0;}
				.st71{fill:#93C1DB;}
				.st72{fill:#77BAE0;}
				.st73{fill:#2E304F;}
				.st74{fill:none;stroke:#C44D4D;stroke-width:2;stroke-linecap:round;stroke-miterlimit:10;}
				.st75{fill:none;stroke:#8A6551;stroke-width:0.75;stroke-linecap:round;stroke-miterlimit:10;}
				.st76{fill:#F1E193;}
				.st77{fill:none;stroke:#F8FFC5;stroke-width:2;stroke-linecap:round;stroke-miterlimit:10;}
				.st78{clip-path:url(#SVGID_13_);}
				.st79{clip-path:url(#SVGID_13_);fill:none;stroke:#A78066;stroke-linecap:round;stroke-miterlimit:10;}
				.st80{clip-path:url(#SVGID_15_);}
				.st81{opacity:0.35;fill:url(#SVGID_16_);}
				.st82{clip-path:url(#SVGID_18_);fill:none;stroke:#B3896D;stroke-linecap:round;stroke-miterlimit:10;}
				.st83{clip-path:url(#SVGID_20_);fill:none;stroke:#B3896D;stroke-linecap:round;stroke-miterlimit:10;}
				.st84{clip-path:url(#SVGID_22_);fill:none;stroke:#B3896D;stroke-linecap:round;stroke-miterlimit:10;}
	</style>
	<defs></defs>
	<clipPath id="SVGID_2_">
		<path class="st0" d="M310.7,267c1.8,13.6,1.8,27.2-0.3,40.7c-0.3,1.9,2.6,2.7,2.9,0.8c2.1-13.8,2.2-27.7,0.4-41.5
				C313.5,265.1,310.5,265.1,310.7,267L310.7,267z" />
		<path class="st0" d="M310.7,267c1.8,13.6,1.8,27.2-0.3,40.7c-0.3,1.9,2.6,2.7,2.9,0.8c2.1-13.8,2.2-27.7,0.4-41.5
				C313.5,265.1,310.5,265.1,310.7,267L310.7,267z" />
	</clipPath>
	<rect name="ground" class="st0" width="600" height="600" />
	<g>
		<g>
			<path class="st0" d="M310.7,267c1.8,13.6,1.8,27.2-0.3,40.7c-0.3,1.9,2.6,2.7,2.9,0.8c2.1-13.8,2.2-27.7,0.4-41.5
				C313.5,265.1,310.5,265.1,310.7,267L310.7,267z" />
		</g>
	</g>
	<path class="st1" d="M281.9,282.3l-222,128.2c-8.2,4.8-8.2,16.6,0,21.4l222,128.2c11.2,6.4,24.9,6.4,36,0l222-128.2
				c8.2-4.8,8.2-16.6,0-21.4L318,282.3C306.8,275.8,293.1,275.8,281.9,282.3z" />
	<g>
		<g>
			<path class="st2" d="M192.5,374.3l94.9-235.1c4.4-11,21.2-11,25.6,0l94.9,235.1H192.5z" />
			<path class="st3" d="M300.2,131v243.9h107.7L313,139.5C310.8,134,305,131,300.2,131z" />
		</g>
		<g>
			<path class="st4" d="M300,374.8L378.9,197c3.7-8.3,17.6-8.3,21.3,0l78.9,177.8H300z" />
			<path class="st4" d="M121.2,374.8L200.1,197c3.7-8.3,17.6-8.3,21.3,0l78.9,177.8H121.2z" />
			<path class="st5" d="M389.2,190.5v184.4h90l-79.1-178C398.2,192.8,394.2,190.5,389.2,190.5z" />
			<path class="st5" d="M211.2,190.5v184.4h90.1l-79.2-178C220.3,192.8,216.2,190.5,211.2,190.5z" />
		</g>
	</g>
	<g>
		<path class="st6" d="M311.7,135.3c-2-2.9-9.7-14.5-16.5-13.2c-4.1,0.8-6.1,5.7-8.3,10.7c0,0-22.8,51.3-25.1,65.7
				c-0.1,0.8-0.1,1.9,0.4,2.8c0.6,1,1.7,1.5,2.8,1.8c6.3,1.3,11.5-4.8,15.1-10.2c3.6-5.4,8.9-11.5,15.2-10c2.8,0.7,5.1,2.8,6.9,5.1
				c4,4.8,7,10.4,8.9,16.3c1,3.1,2.9,7.1,6,6.2c1.8-0.5,2.7-2.6,3.1-4.5c1.2-6.1-0.3-9-0.3-16.1c0-6,1.6-13.4,4.5-13.9
				c1.9-0.4,3.5,2.5,4.4,2c0.8-0.4,0.5-3.8-4.4-16.5L311.7,135.3z" />
	</g>
	<g>
		<path class="st6" d="M198.2,194.8c-7.5,11-6.5,13-16.8,34.1c-3.2,6.4-6,12-3.9,14.4c1.3,1.4,4,1.5,5.7,0.8c2.5-0.9,3-2.5,6.9-6.9
				c3.3-3.8,5-5.7,7.6-6.6c3.2-1.1,6.2-0.5,7.5-0.2c6.6,1.6,7.8,6.7,11.3,6.3c4.4-0.5,4.6-8.7,8.8-9c3.7-0.2,8.4,5.9,9.3,7.1
				c0,0,0,0,0,0c0.2,0.3,1.6,2.3,4.2,4c1,0.7,2.4,1.6,3.1,1.1c0.3-0.2,1-1-0.1-5c-7.6-26.4-15.4-37.6-15.4-37.6
				c-7.1-10.2-10.7-15.2-15.7-15C209.1,182.5,206.1,183.2,198.2,194.8z" />
	</g>
	<g>
		<path class="st6" d="M379.5,191.4c-4.8,7.9-7.6,14.4-10.8,22.2c-7.7,18.5-9.2,22.9-7.5,24.3c1.8,1.4,6.8-0.4,8.9-2.1
				c2.5-2.1,5-4.7,8.2-5c4.3-0.4,7.8,3.6,9.6,7.6c1.8,4,2.7,8.5,5.8,11.6s9.3,3.5,11-0.5c0.5-1.2,0.5-2.5,0.5-3.9
				c-0.1-3.7-0.2-7.4-0.2-11.1c0-1.4,0-2.9,0.6-4.1c0.9-1.7,3.4-1.5,3.5-1.5c2.5,0,7.8,7.4,8.9,7c1.2-0.5-2.2-11.2-2.2-11.2
				c-1.6-5.1-2.6-8.2-4.7-13c-0.7-1.5-1.2-2.7-1.8-3.8c-4.5-9-9.4-16.7-9.4-16.7c-4.9-7.6-7.4-11.3-9.7-11.4
				C388.7,179.6,386.1,180.4,379.5,191.4z" />
	</g>
	<path class="st7" d="M311,267.4l-25.5,27.4c-2.3,2.4-0.3,6.4,3,6h0c3.3-0.4,5.3,3.6,3,6l-18,18.6c-2.2,2.3-0.6,6,2.5,6.1l9.2,0.2
				c3.4,0.1,4.8,4.3,2.2,6.4l-23.3,18.7c-2.6,2.1-1.2,6.3,2.1,6.4l14.6,0.5c3.2,0.1,4.7,4,2.3,6.2l-15.7,14.8c-2.4,2.2-0.8,6.2,2.5,6.2
				h91.3c3.2,0,4.8-3.9,2.5-6.2l-17.4-16.7c-2.2-2.1-0.9-5.9,2.2-6.2l17.1-1.4c3.3-0.3,4.5-4.6,1.7-6.5l-22.4-15.6
				c-2.7-1.9-1.7-6,1.5-6.5l6.5-0.9c3-0.4,4.2-4.1,1.9-6.2l-20.7-19c-2.5-2.3-0.7-6.4,2.6-6.2l1.3,0.1c3.2,0.2,5-3.7,2.8-6l-24.5-26
				C314.8,265.9,312.4,265.9,311,267.4z" />
	<path class="st8" d="M240.1,282.2l-22.8,24.5c-2,2.2-0.2,5.7,2.7,5.4h0c3-0.4,4.8,3.2,2.7,5.4l-16.1,16.7c-1.9,2-0.5,5.4,2.2,5.4
				l8.2,0.1c3,0.1,4.3,3.8,1.9,5.7l-20.9,16.7c-2.3,1.9-1.1,5.6,1.9,5.7l13,0.4c2.8,0.1,4.2,3.6,2.1,5.5L201.1,387
				c-2.1,2-0.7,5.5,2.2,5.5h81.6c2.9,0,4.3-3.5,2.2-5.5l-15.6-14.9c-2-1.9-0.8-5.3,1.9-5.5l15.3-1.3c3-0.3,4-4.1,1.6-5.8l-20.1-14
				c-2.4-1.7-1.5-5.4,1.4-5.8l5.8-0.8c2.7-0.4,3.7-3.7,1.7-5.5l-18.5-17c-2.2-2-0.7-5.7,2.3-5.6l1.1,0.1c2.9,0.1,4.5-3.3,2.5-5.4
				l-21.9-23.3C243.5,280.9,241.3,280.9,240.1,282.2z" />
	<path class="st7" d="M438.7,304l-15.3,16.4c-1.4,1.5-0.2,3.8,1.8,3.6h0c2-0.2,3.2,2.2,1.8,3.6l-10.8,11.2c-1.3,1.4-0.4,3.6,1.5,3.6
				l5.5,0.1c2,0,2.9,2.6,1.3,3.8l-14,11.2c-1.6,1.2-0.7,3.8,1.3,3.8l8.7,0.3c1.9,0.1,2.8,2.4,1.4,3.7l-9.4,8.9
				c-1.4,1.3-0.5,3.7,1.5,3.7h54.8c1.9,0,2.9-2.4,1.5-3.7l-10.4-10c-1.3-1.3-0.5-3.5,1.3-3.7l10.2-0.9c2-0.2,2.7-2.8,1-3.9l-13.5-9.4
				c-1.6-1.1-1-3.6,0.9-3.9l3.9-0.6c1.8-0.3,2.5-2.5,1.2-3.7l-12.4-11.4c-1.5-1.4-0.4-3.8,1.6-3.7l0.8,0c1.9,0.1,3-2.2,1.7-3.6
				L441.8,304C441,303,439.6,303.1,438.7,304z" />
	<path class="st8" d="M107.8,330.4l-15.3,16.4c-1.4,1.5-0.2,3.8,1.8,3.6h0c2-0.2,3.2,2.2,1.8,3.6l-10.8,11.2
				c-1.3,1.4-0.4,3.6,1.5,3.6l5.5,0.1c2,0,2.9,2.6,1.3,3.8l-14,11.2c-1.6,1.2-0.7,3.8,1.3,3.8l8.7,0.3c1.9,0.1,2.8,2.4,1.4,3.7
				l-9.4,8.9c-1.4,1.3-0.5,3.7,1.5,3.7h54.8c1.9,0,2.9-2.4,1.5-3.7l-10.4-10c-1.3-1.3-0.5-3.5,1.3-3.7l10.2-0.9c2-0.2,2.7-2.8,1-3.9
				l-13.5-9.4c-1.6-1.1-1-3.6,0.9-3.9l3.9-0.6c1.8-0.3,2.5-2.5,1.2-3.7l-12.4-11.4c-1.5-1.4-0.4-3.8,1.6-3.7l0.8,0
				c1.9,0.1,3-2.2,1.7-3.6L111,330.4C110.1,329.5,108.7,329.5,107.8,330.4z" />
	<path class="st9" d="M118.5,392.7c-1.9,1.9-3.9,3.7-5.8,5.6c0-1.8,0-3.7-0.1-5.5c0.2,0,0.5-0.2,0.7-0.3c2.4-2,4.5-4.2,6.5-6.5
				c1.2-1.5-0.9-3.6-2.1-2.1c-1.6,1.9-3.3,3.8-5.2,5.4c0-0.6-0.1-1.1-0.1-1.7c0.4-0.6,0.4-1.4-0.1-2c-0.1-1.1-0.2-2.3-0.3-3.4
				c0.4,0.3,1,0.4,1.6,0.1c2.5-1.4,4.8-3.1,6.8-5.2c1.3-1.4-0.8-3.5-2.1-2.1c-1.8,1.9-3.9,3.5-6.2,4.8c-0.1,0.1-0.2,0.1-0.3,0.2
				c-0.2-2-0.4-3.9-0.5-5.9c0.2-0.1,0.5-0.2,0.7-0.4c2.5-2.7,5.2-5.2,8.1-7.4c1.5-1.1,0-3.7-1.5-2.6c-2.7,2-5.3,4.3-7.6,6.7
				c-0.2-2.3-0.4-4.6-0.5-6.8c2.7-2.3,5.6-4.3,8.7-6.1c1.7-1,0.2-3.5-1.5-2.6c-2.6,1.5-5,3.1-7.4,4.9c-0.1-1.6-0.1-3.2-0.1-4.8
				c0.1-0.1,0.1-0.1,0.2-0.2c1.8-1.5,3.5-3.2,5.2-4.8c1.4-1.3-0.7-3.4-2.1-2.1c-0.9,0.9-1.9,1.7-2.8,2.6c-0.1,0.1-0.3,0.2-0.4,0.4
				c0.1-1.9,0.2-3.9,0.5-5.8c0.2-1.9-2.8-1.9-3,0c-0.2,1.5-0.3,3-0.4,4.4c-1.6-1.1-3.3-1.9-5.1-2.7c-1.8-0.7-2.6,2.2-0.8,2.9
				c2.1,0.9,3.9,1.9,5.7,3.3c-0.5,0.6-0.6,1.3-0.1,2c0.1,0.1,0.1,0.1,0.2,0.2c0,0.7,0,1.5,0,2.2c-2.1-0.5-4.2-1.2-6.1-2.1
				c-1.7-0.9-3.2,1.7-1.5,2.6c2.5,1.2,5,2.1,7.7,2.6c0,0.6,0.1,1.3,0.1,1.9c-0.2,0.4-0.2,0.9,0.1,1.3c0.1,1.2,0.1,2.4,0.2,3.6
				c-3.1-0.6-5.9-1.9-8.4-3.7c-1.6-1.1-3.1,1.5-1.5,2.6c3.1,2.2,6.5,3.6,10.2,4.2c0.2,1.9,0.3,3.8,0.5,5.6c-2.8-1.2-5.7-2.2-8.6-3.1
				c-1.9-0.5-2.6,2.4-0.8,2.9c3.1,0.9,6.1,2,9,3.2c0.2,0.1,0.5,0.1,0.7,0.1c0.2,1.7,0.3,3.4,0.4,5c-2.4-1.1-4.7-2.2-7-3.5
				c-1.7-0.9-3.2,1.7-1.5,2.6c2.9,1.6,5.8,3,8.8,4.2c0.1,1.8,0.2,3.5,0.3,5.3c-3.2-1-6.2-2.4-9-4.2c-1.6-1-3.1,1.5-1.5,2.6
				c3.3,2.1,6.9,3.7,10.6,4.7c0,1.8,0,3.5,0,5.3c-3.1-1-6.2-2.1-9.1-3.6c-1.7-0.8-3.3,1.8-1.5,2.6c3.4,1.6,6.9,3,10.5,4.1
				c0.1,1.7,2.9,1.6,3-0.2c0-0.6,0-1.1,0.1-1.7c0.2-0.1,0.4-0.2,0.6-0.4c2.5-2.4,4.9-4.7,7.4-7.1C122,393.5,119.9,391.4,118.5,392.7z" />
	<path class="st8" d="M384.4,279.4l-23.6,25.3c-2.1,2.3-0.3,5.9,2.8,5.5l0,0c3.1-0.4,4.9,3.3,2.8,5.6l-16.6,17.2
				c-2,2.1-0.6,5.6,2.3,5.6l8.5,0.2c3.1,0.1,4.4,4,2,5.9L341,362c-2.4,1.9-1.1,5.8,2,5.9l13.5,0.5c2.9,0.1,4.3,3.7,2.2,5.7L344,387.7
				c-2.2,2.1-0.7,5.7,2.3,5.7h84.4c3,0,4.4-3.6,2.3-5.7l-16.1-15.4c-2.1-2-0.8-5.4,2-5.7l15.8-1.3c3.1-0.3,4.2-4.2,1.6-6l-20.7-14.4
				c-2.5-1.7-1.6-5.6,1.4-6l6-0.9c2.8-0.4,3.8-3.8,1.8-5.7l-19.1-17.6c-2.3-2.1-0.7-5.9,2.4-5.7l1.2,0.1c3,0.2,4.6-3.4,2.6-5.6
				l-22.7-24C387.9,278,385.7,278,384.4,279.4z" />
	<path class="st7" d="M138.4,341.5L123.1,358c-1.4,1.5-0.2,3.8,1.8,3.6h0c2-0.2,3.2,2.2,1.8,3.6l-10.8,11.2c-1.3,1.4-0.4,3.6,1.5,3.6
				l5.5,0.1c2,0,2.9,2.6,1.3,3.8l-14,11.2c-1.6,1.2-0.7,3.8,1.3,3.8l8.7,0.3c1.9,0.1,2.8,2.4,1.4,3.7l-9.4,8.9
				c-1.4,1.3-0.5,3.7,1.5,3.7h54.8c1.9,0,2.9-2.4,1.5-3.7l-10.4-10c-1.3-1.3-0.5-3.5,1.3-3.7l10.2-0.9c2-0.2,2.7-2.8,1-3.9l-13.5-9.4
				c-1.6-1.1-1-3.6,0.9-3.9l3.9-0.6c1.8-0.3,2.5-2.5,1.2-3.7l-12.4-11.4c-1.5-1.4-0.4-3.8,1.6-3.7l0.8,0c1.9,0.1,3-2.2,1.7-3.6
				l-14.7-15.6C140.7,340.6,139.2,340.6,138.4,341.5z" />
	<path class="st10" d="M281.9,407.1" />
	<path class="st9" d="M400.5,381.7c-1.9,1.9-3.9,3.7-5.8,5.6c0-1.8,0-3.7-0.1-5.5c0.2,0,0.5-0.2,0.7-0.3c2.4-2,4.5-4.2,6.5-6.5
				c1.2-1.5-0.9-3.6-2.1-2.1c-1.6,1.9-3.3,3.8-5.2,5.4c0-0.6-0.1-1.1-0.1-1.7c0.4-0.6,0.4-1.4-0.1-2c-0.1-1.1-0.2-2.3-0.3-3.4
				c0.4,0.3,1,0.4,1.6,0.1c2.5-1.4,4.8-3.1,6.8-5.2c1.3-1.4-0.8-3.5-2.1-2.1c-1.8,1.9-3.9,3.5-6.2,4.8c-0.1,0.1-0.2,0.1-0.3,0.2
				c-0.2-2-0.4-3.9-0.5-5.9c0.2-0.1,0.5-0.2,0.7-0.4c2.5-2.7,5.2-5.2,8.1-7.4c1.5-1.1,0-3.7-1.5-2.6c-2.7,2-5.3,4.3-7.6,6.7
				c-0.2-2.3-0.4-4.6-0.5-6.8c2.7-2.3,5.6-4.3,8.7-6.1c1.7-1,0.2-3.5-1.5-2.6c-2.6,1.5-5,3.1-7.4,4.9c-0.1-1.6-0.1-3.2-0.1-4.8
				c1.1-0.7,2-1.9,2.8-2.6c1.8-1.6,3.5-3.2,5.3-4.9c1.4-1.3-0.7-3.4-2.1-2.1c-1.3,1.2-2.7,2.5-4,3.7c-0.6,0.6-1.2,1.1-1.8,1.7
				c0.1-1.9,0.2-3.9,0.5-5.8c0.2-1.9-2.8-1.9-3,0c-0.2,1.5-0.3,2.9-0.4,4.4c-2.3-1.6-4.6-2.9-7.2-4c-1.8-0.7-3.3,1.8-1.5,2.6
				c3,1.3,5.9,2.9,8.5,4.9c-0.4,0.6-0.5,1.3-0.1,2c0,0.1,0.1,0.2,0.2,0.3c0,0.7,0,1.4,0,2.1c-2.1-0.5-4.2-1.2-6.1-2.1
				c-1.7-0.9-3.2,1.7-1.5,2.6c2.5,1.2,5,2.1,7.7,2.6c0,0.6,0.1,1.3,0.1,1.9c-0.2,0.4-0.2,0.9,0.1,1.3c0.1,1.2,0.1,2.4,0.2,3.6
				c-3.1-0.6-5.9-1.9-8.4-3.7c-1.6-1.1-3.1,1.5-1.5,2.6c3.1,2.2,6.5,3.6,10.2,4.2c0.2,1.9,0.3,3.8,0.5,5.6c-2.8-1.2-5.7-2.2-8.6-3.1
				c-1.9-0.5-2.6,2.4-0.8,2.9c3.1,0.9,6.1,2,9,3.2c0.2,0.1,0.5,0.1,0.7,0.1c0.2,1.7,0.3,3.4,0.4,5c-2.4-1.1-4.7-2.2-7-3.5
				c-1.7-0.9-3.2,1.7-1.5,2.6c2.9,1.6,5.8,3,8.8,4.2c0.1,1.8,0.2,3.5,0.3,5.3c-3.2-1-6.2-2.4-9-4.2c-1.6-1-3.1,1.5-1.5,2.6
				c3.3,2.1,6.9,3.7,10.6,4.7c0,1.8,0,3.5,0,5.3c-3.1-1-6.2-2.1-9.1-3.6c-1.7-0.8-3.3,1.8-1.5,2.6c3.4,1.6,6.9,3,10.5,4.1
				c0.1,1.7,2.9,1.6,3-0.2c0-0.6,0-1.1,0.1-1.7c0.2-0.1,0.4-0.2,0.6-0.4c2.5-2.4,4.9-4.7,7.4-7.1C404,382.5,401.9,380.4,400.5,381.7z" />
	<g>
		<path class="st9" d="M245.7,361.3c0.2-0.1,0.4-0.2,0.5-0.3c2.5-2.4,4.9-4.7,7.4-7.1c1.4-1.3-0.7-3.5-2.1-2.1
				c-2,1.9-3.9,3.7-5.9,5.6c0-1.1-0.1-2.2-0.1-3.3c0.1-0.3,0.1-0.7,0-1c0-0.4,0-0.8-0.1-1.2c0.3,0,0.6-0.1,0.8-0.4
				c2.4-2,4.5-4.2,6.5-6.5c1.2-1.5-0.9-3.6-2.1-2.1c-1.6,2-3.4,3.9-5.4,5.6c0-0.5-0.1-1.1-0.1-1.6c0.6-0.6,0.6-1.8-0.2-2.4
				c-0.1-1.1-0.2-2.3-0.3-3.4c0.4,0.5,1.1,0.7,1.8,0.4c2.5-1.4,4.8-3.1,6.8-5.2c1.3-1.4-0.8-3.5-2.1-2.1c-1.8,1.9-3.9,3.5-6.2,4.8
				c-0.2,0.1-0.4,0.3-0.5,0.4c-0.2-2-0.4-4-0.5-6.1c0.3,0,0.6-0.2,0.9-0.5c2.5-2.7,5.2-5.2,8.1-7.4c1.5-1.1,0-3.7-1.5-2.6
				c-2.8,2.1-5.4,4.4-7.8,6.9c0-0.3-0.1-0.7-0.1-1c0.1-0.3,0-0.6-0.1-0.9c-0.1-1.6-0.2-3.3-0.3-4.9c2.8-2.3,5.7-4.4,8.8-6.2
				c1.7-1,0.2-3.5-1.5-2.6c-2.6,1.5-5.1,3.2-7.4,5c0-1.6,0-3.2,0-4.8c0,0,0,0,0.1-0.1c2.2-1.8,4.3-3.9,6.4-5.8
				c1.4-1.3-0.7-3.4-2.1-2.1c-1.1,1-2.2,2-3.3,3.1c-0.3,0.3-0.6,0.5-0.8,0.8c0.1-1.9,0.2-3.9,0.5-5.8c0.2-1.9-2.8-1.9-3,0
				c-0.2,1.5-0.3,2.9-0.4,4.4c-1.9-1.3-3.8-2.3-6-3.2c-1.8-0.7-2.6,2.2-0.8,2.9c2.4,1,4.5,2.3,6.6,3.8c-0.5,0.6-0.6,1.5,0,2.2
				c0,0,0,0,0,0c0,0.7,0,1.5,0,2.2c-2.1-0.5-4.1-1.2-6.1-2.1c-1.7-0.9-3.2,1.7-1.5,2.6c2.4,1.2,5,2.1,7.6,2.6c0,0.7,0,1.4,0.1,2.1
				c-0.1,0.3-0.1,0.6,0,0.8c0.1,1.3,0.1,2.6,0.2,3.8c-3-0.6-5.8-1.9-8.3-3.7c-1.6-1.1-3.1,1.5-1.5,2.6c3,2.2,6.4,3.5,10,4.1
				c0.1,1.9,0.3,3.7,0.5,5.6c-2.8-1.1-5.5-2.1-8.4-3c-1.9-0.5-2.6,2.4-0.8,2.9c3.1,0.9,6.1,2,9,3.2c0.2,0.1,0.3,0.1,0.5,0.1
				c0.1,1.7,0.3,3.3,0.4,5c-2.3-1-4.6-2.2-6.8-3.4c-1.7-0.9-3.2,1.7-1.5,2.6c2.8,1.5,5.7,2.9,8.6,4.2c0.1,1.8,0.3,3.6,0.4,5.4
				c-3.1-1-6.1-2.3-8.9-4.1c-1.6-1-3.1,1.5-1.5,2.6c3.3,2.1,6.8,3.7,10.6,4.7c0.1,1.8,0.1,3.5,0.1,5.3c-3.2-1-6.2-2.1-9.2-3.6
				c-1.7-0.8-3.3,1.8-1.5,2.6c3.5,1.7,7,3,10.7,4.1c0,1.2-0.1,2.5-0.2,3.7c-0.1,1.9,2.9,1.9,3,0C245.6,365.1,245.7,363.2,245.7,361.3z
				" />
		<path class="st9" d="M252.1,362.8c-2.1,1.9-4.2,3.8-6.4,5.7c-1.4,1.3,0.7,3.4,2.1,2.1c2.1-1.9,4.2-3.8,6.4-5.7
				C255.7,363.6,253.5,361.5,252.1,362.8z" />
	</g>
	<g>
		<path class="st11" d="M319.3,404.1c-0.4,0.4-2.3,1.9-5,1.9c-2.7,0-4.4-1.5-4.9-1.9c0-47.7,0-95.3,0-143h9.9V404.1z" />
		<g>
			<defs>
				<path id="SVGID_1_" d="M319.3,404.1c-0.4,0.4-2.3,1.9-5,1.9c-2.7,0-4.4-1.5-4.9-1.9c0-47.7,0-95.3,0-143h9.9V404.1z" />
			</defs>
			<clipPath id="SVGID_2_">
				<use xlink:href="#SVGID_1_" style="overflow:visible;" />
			</clipPath>
			<g class="st12">
				<path class="st13" d="M318.7,282.2c-0.2,0.2-2.7,3-1.8,6.5c0.6,2.2,2.2,3.4,2.8,3.8" />
				<path class="st13" d="M319.3,276.4c-1.1,0.2-3.1,0.7-4.5,2.4c-1.5,1.8-1.4,3.9-1.3,6.5c0.1,2.2,0.4,7.7,3.9,9.6
				c0.7,0.4,1.4,0.5,1.8,0.6" />
				<path class="st13" d="M319.9,274.2c-0.9,0-2.4,0.2-3.9,1c-3.5,1.9-4.4,5.6-4.8,7.2c-1,4,0.1,7.2,0.4,8.2c0.5,1.5,1.3,3.8,3.6,5.5
				c1.8,1.3,3.6,1.7,4.6,1.8" />
				<path class="st13" d="M309.4,291.6c0.3,1.5,0.9,3.6,2.3,5.7c0.8,1.2,1.9,2.7,3.9,3.9c1.6,0.9,3.1,1.2,4.1,1.3" />
				<path class="st13" d="M309.4,309c0.4,0.2,1.2,0.7,1.8,1.8c0.1,0.2,0.5,0.9,0.5,2c0,0.5,0,1.4-0.5,2.2c-0.6,0.9-1.4,1.2-1.7,1.3" />
				<path class="st13" d="M309,306.2c0.7,0.1,1.9,0.4,3,1.2c1.6,1.2,2.2,2.9,2.4,3.5c0.4,1.2,0.4,2.1,0.3,3c0,0.9,0,1.9-0.5,3
				c-0.6,1.4-1.4,2.2-1.6,2.3c-0.4,0.4-1,0.9-1.8,1.1c-0.6,0.2-1.1,0.1-1.4,0.1" />
				<path class="st13" d="M309.4,343.7c1.3-0.2,4.9-0.9,7.6-3.8c0.7-0.7,1.9-2.1,2.4-4.3c0.4-1.7,0.2-3.1,0-3.9" />
				<path class="st13" d="M319.3,351.5c-1.2,0.7-1.8,1.6-2.1,2.1c-1,1.6-1.5,4.3-0.1,5.8c0.5,0.5,1.1,0.7,1.5,0.8" />
				<path class="st13" d="M319.3,347.4c-0.9,0.4-2.2,1.1-3.4,2.4c-2.3,2.5-2.8,5.3-3,6.7c-0.2,1.3-0.5,4,0.8,6.6
				c0.4,0.7,1,1.9,2.4,2.9c1.2,0.8,2.5,1.1,3.1,1.1" />
				<path class="st13" d="M319.3,341.8c-1.1,0.8-2.7,2-4.5,3.6c-0.8,0.7-2.3,2.1-3.3,3.5c-4.5,6-1.9,14.8-1.7,15.4
				c0.6,1.9,1.3,4.1,3.5,6c2.3,2,4.8,2.4,6,2.5" />
				<path class="st13" d="M309.4,372.1c-0.1,0.8-0.1,3.5,1.6,6c0.4,0.5,2.2,3.1,5.5,3.6c1.2,0.2,2.1,0,2.8-0.1" />
				<path class="st13" d="M309.4,379.2c0.2,1,0.7,2.3,1.5,3.5c2.7,3.9,7.4,4.5,8.4,4.6" />
				<path class="st13" d="M309.4,393c0.5,0.6,1.3,1.6,1.9,2.9c0.5,1,1,2.2,1,3.8c0,1.5-0.6,2.7-1,3.5" />
				<path class="st13" d="M309.4,388.3c1,0.5,2.5,1.4,3.8,3.1c2.3,3,2.2,6.3,2.1,7.8c-0.1,4-1.9,6.9-2.8,8.1" />
				<path class="st13" d="M309.4,385.5c1.4,0.6,5.8,2.7,7.9,7.5c1.4,3.2,1.1,6.1,1,7.9c-0.3,3.9-1.7,6.8-2.6,8.4" />
				<path class="st13" d="M308.5,300.8c1.3,0.4,4.1,1.5,6.4,4.3c0.8,0.9,3.8,4.9,2.8,10.1c-1.2,6.8-8.1,9.3-8.3,9.4" />
				<path class="st13" d="M308.4,331.9c2.2-1.1,6.7-3.8,9.9-9.2c1.7-2.9,2.5-5.6,2.9-7.6" />
			</g>
			<path class="st14" d="M307,272.9c1-0.6,3-1.8,4.5-4.1c1.9-2.8,2.2-5.5,2.2-6.7" />
			<path class="st14" d="M310,272.9c1-0.6,3-1.8,4.5-4.1c1.9-2.8,2.2-5.5,2.2-6.7" />
		</g>
		<g>
			<path class="st15" d="M357.1,290.5c-0.1-1.3-1-2.3-1.8-3.3c-5.1-5.7-12.2-9.2-19.5-11.6c-6-1.7-12-3.3-18.1-5
				c-0.7-0.3-2-0.7-3.6-0.7c-1.6,0-2.8,0.4-3.5,0.8c-6,1.7-12,3.5-17.9,5.2c-7.3,2.4-14.4,5.8-19.5,11.6c-0.8,0.9-1.6,2-1.8,3.3
				c-0.1,1.3,0.6,2.7,1.9,2.9c1.9,0.2,3.2-2.4,5.1-2.3c0.7,0,1.3,0.3,1.9,0.5c2.1,0.6,4.7-0.7,5.3-2.9c0.2-0.5,0.2-1.1,0.7-1.4
				c0.6-0.4,1.4-0.1,2.1,0.1c3.6,1.2,7.9-0.9,9.2-4.5c1.1,0.6,2.9,1.4,4.8,1c2.6-0.6,2.9-3,5.5-3.7c2.3-0.6,2.8,1.2,6.2,1.2
				c3.8,0.1,4.7-2,7.2-1.2c2.4,0.7,2.5,2.8,4.9,3.5c1.8,0.5,3.6-0.3,4.8-1c1.3,3.5,5.6,5.6,9.2,4.5c0.7-0.2,1.5-0.5,2.1-0.1
				c0.4,0.3,0.5,0.9,0.7,1.4c0.7,2.1,3.2,3.5,5.3,2.9c0.6-0.2,1.3-0.5,1.9-0.5c1.9,0,3.2,2.6,5.1,2.3
				C356.5,293.2,357.3,291.8,357.1,290.5z" />
		</g>
		<g>
			<path class="st16" d="M357.1,292.5c-0.1-1.3-1-2.3-1.8-3.3c-5.1-5.7-12.2-9.2-19.5-11.6c-6-1.7-12-3.3-18.1-5
				c-0.7-0.3-2-0.7-3.6-0.7c-1.6,0-2.8,0.4-3.5,0.8c-6,1.7-12,3.5-17.9,5.2c-7.3,2.4-14.4,5.8-19.5,11.6c-0.8,0.9-1.6,2-1.8,3.3
				c-0.1,1.3,0.6,2.7,1.9,2.9c1.9,0.2,3.2-2.4,5.1-2.3c0.7,0,1.3,0.3,1.9,0.5c2.1,0.6,4.7-0.7,5.3-2.9c0.2-0.5,0.2-1.1,0.7-1.4
				c0.6-0.4,1.4-0.1,2.1,0.1c3.6,1.2,7.9-0.9,9.2-4.5c1.1,0.6,2.9,1.4,4.8,1c2.6-0.6,2.9-3,5.5-3.7c2.3-0.6,2.8,1.2,6.2,1.2
				c3.8,0.1,4.7-2,7.2-1.2c2.4,0.7,2.5,2.8,4.9,3.5c1.8,0.5,3.6-0.3,4.8-1c1.3,3.5,5.6,5.6,9.2,4.5c0.7-0.2,1.5-0.5,2.1-0.1
				c0.4,0.3,0.5,0.9,0.7,1.4c0.7,2.1,3.2,3.5,5.3,2.9c0.6-0.2,1.3-0.5,1.9-0.5c1.9,0,3.2,2.6,5.1,2.3
				C356.5,295.2,357.3,293.8,357.1,292.5z" />
		</g>
		<g>
			<path class="st15" d="M353.2,342.4c-11.5-6.2-23.7-11.1-36.3-14.5c-1.5-0.4-3-0.4-4.5,0c-12.7,3.4-25.4,8.5-36.9,14.7
				c-1.9,1-3.8,2.1-5.1,3.9c2.8,0.9,6.1-0.1,8-2.3c2.5,2.3,7.3,1.1,8.3-2.1c0.3,2.2,3.2,3.4,5.3,2.6c2.1-0.8,3.4-3,3.8-5.2
				c0.4,0.4,2.6,2.6,5.8,2.3c3.1-0.2,5.9-2.7,6.7-6.2c1.3,2.1,3.6,3.4,6.1,3.3c3.9-0.1,5.8-3.4,5.8-3.6c0.8,3.5,3.6,5.9,6.7,6.2
				c3.2,0.3,5.5-2,5.8-2.3c0.4,2.2,1.7,4.4,3.8,5.2c2.1,0.8,4.9-0.4,5.3-2.6c1,3.2,5.8,4.5,8.3,2.1c1.9,2.2,5.2,3.2,8,2.3
				C357,344.5,355.1,343.4,353.2,342.4z" />
		</g>
		<g>
			<path class="st15" d="M357.8,316.4c-15-11-40.2-16.9-40.2-16.9c-0.7-0.2-1.6-0.4-2.7-0.3c-1.5,0-2.6,0.4-2.9,0.6
				c-2.8,1-29.4,9-40.2,16.9c-1.3,0.9-2.8,2.2-2.6,3.3c0.3,1,1.5,1.6,2.5,1.4c1-0.1,1.9-0.8,2.7-1.5c0.3-0.3,0.7-0.7,1.1-0.7
				c0.5,0,0.8,0.4,1.2,0.8c1.2,1.1,3,1.2,4.4,0.7c1.5-0.5,2.7-1.7,3.6-2.9c0.2-0.3,0.5-0.6,0.9-0.7c0.6-0.1,1.1,0.6,1.5,1.1
				c1.3,1.4,3.6,1.3,5.2,0.3s2.7-2.6,4-4c0.2-0.3,0.5-0.5,0.8-0.6c0.5,0,0.8,0.4,1.1,0.8c1.5,1.8,4.2,2.5,6.4,1.7
				c2.2-0.8,3.8-3,3.9-5.4c0.2,0.2,2.5,3.3,6.5,3.1c3.6-0.2,5.5-3,5.8-3.3c0.1,2.3,1.7,4.6,3.9,5.4c2.2,0.8,4.9,0.1,6.4-1.7
				c0.3-0.4,0.7-0.8,1.1-0.8c0.3,0,0.6,0.3,0.8,0.6c1.2,1.4,2.4,3,4,4s4,1.1,5.2-0.3c0.4-0.5,0.9-1.2,1.5-1.1
				c0.4,0.1,0.6,0.4,0.9,0.7c1,1.3,2.1,2.4,3.6,2.9c1.5,0.5,3.3,0.4,4.4-0.7c0.4-0.3,0.7-0.8,1.2-0.8c0.5,0,0.8,0.3,1.1,0.7
				c0.7,0.7,1.6,1.4,2.7,1.5c1,0.1,2.2-0.4,2.5-1.4C360.6,318.6,358.9,317.2,357.8,316.4z" />
		</g>
		<g>
			<path class="st16" d="M357.8,318.4c-15-11-40.2-16.9-40.2-16.9c-0.7-0.2-1.6-0.4-2.7-0.3c-1.5,0-2.6,0.4-2.9,0.6
				c-2.8,1-29.4,9-40.2,16.9c-1.3,0.9-2.8,2.2-2.6,3.3c0.3,1,1.5,1.6,2.5,1.4c1-0.1,1.9-0.8,2.7-1.5c0.3-0.3,0.7-0.7,1.1-0.7
				c0.5,0,0.8,0.4,1.2,0.8c1.2,1.1,3,1.2,4.4,0.7c1.5-0.5,2.7-1.7,3.6-2.9c0.2-0.3,0.5-0.6,0.9-0.7c0.6-0.1,1.1,0.6,1.5,1.1
				c1.3,1.4,3.6,1.3,5.2,0.3s2.7-2.6,4-4c0.2-0.3,0.5-0.5,0.8-0.6c0.5,0,0.8,0.4,1.1,0.8c1.5,1.8,4.2,2.5,6.4,1.7
				c2.2-0.8,3.8-3,3.9-5.4c0.2,0.2,2.5,3.3,6.5,3.1c3.6-0.2,5.5-3,5.8-3.3c0.1,2.3,1.7,4.6,3.9,5.4c2.2,0.8,4.9,0.1,6.4-1.7
				c0.3-0.4,0.7-0.8,1.1-0.8c0.3,0,0.6,0.3,0.8,0.6c1.2,1.4,2.4,3,4,4s4,1.1,5.2-0.3c0.4-0.5,0.9-1.2,1.5-1.1
				c0.4,0.1,0.6,0.4,0.9,0.7c1,1.3,2.1,2.4,3.6,2.9c1.5,0.5,3.3,0.4,4.4-0.7c0.4-0.3,0.7-0.8,1.2-0.8c0.5,0,0.8,0.3,1.1,0.7
				c0.7,0.7,1.6,1.4,2.7,1.5c1,0.1,2.2-0.4,2.5-1.4C360.6,320.6,358.9,319.2,357.8,318.4z" />
		</g>
		<g>
			<path class="st16" d="M353.2,344.9c-11.5-6.2-23.7-11.1-36.3-14.5c-1.5-0.4-3-0.4-4.5,0c-12.7,3.4-25.4,8.5-36.9,14.7
				c-1.9,1-3.8,2.1-5.1,3.9c2.8,0.9,6.1-0.1,8-2.3c2.5,2.3,7.3,1.1,8.3-2.1c0.3,2.2,3.2,3.4,5.3,2.6c2.1-0.8,3.4-3,3.8-5.2
				c0.4,0.4,2.6,2.6,5.8,2.3c3.1-0.2,5.9-2.7,6.7-6.2c1.3,2.1,3.6,3.4,6.1,3.3c3.9-0.1,5.8-3.4,5.8-3.6c0.8,3.5,3.6,5.9,6.7,6.2
				c3.2,0.3,5.5-2,5.8-2.3c0.4,2.2,1.7,4.4,3.8,5.2c2.1,0.8,4.9-0.4,5.3-2.6c1,3.2,5.8,4.5,8.3,2.1c1.9,2.2,5.2,3.2,8,2.3
				C357,347,355.1,345.9,353.2,344.9z" />
		</g>
		<g>
			<path class="st15" d="M342.5,383c-1.3-2.6-3.6-4.6-5.9-6.4c-3.6-2.7-7.6-5.9-13.8-7.7c-2-0.6-4.7-1.3-8.3-1.3
				c-3.2,0.1-5.5,0.8-7.7,1.5c-6.6,2.1-10.8,5.4-13.8,7.7c-2.3,1.7-4.6,3.7-5.9,6.4s-1.4,6,0.5,8.3c0.4,0.5,0.9,0.9,1.5,0.9
				c0.6,0,1.1-0.5,1.4-1c0.9-1.5,0.9-3.5,0-5c0.6,1.3,2.6,1.2,3.5,0.1c0.6-0.8,0.8-1.8,0.7-2.9c0.5,0.9,1.8,1.5,2.9,1.2
				c1.5-0.5,2.3-2,2.7-3.5c0.4-1.5,0.4-3.1,1-4.5c0.3,1,1.5,1.6,2.6,1.4c1.1-0.1,2-0.8,2.7-1.5c1.3-1.2,2.2-2.8,2.8-4.5
				c0.1-0.2,0.1-0.4,0.3-0.5c0.4-0.3,1,0.1,1.2,0.3c1.8,1,6,0.8,7.8-0.2c0.2-0.1,0.9-0.5,1.2-0.3c0.1,0.1,0.2,0.3,0.3,0.5
				c0.6,1.7,1.5,3.2,2.8,4.5c0.8,0.8,1.7,1.4,2.7,1.5c1.1,0.1,2.3-0.4,2.6-1.4c0.5,1.4,0.6,3,1,4.5c0.4,1.5,1.2,3,2.7,3.5
				c1.1,0.4,2.4-0.2,2.9-1.2c-0.1,1,0.1,2.1,0.7,2.9c0.9,1.1,2.9,1.2,3.5-0.1c-0.9,1.5-0.9,3.5,0,5c0.3,0.5,0.8,1,1.4,1
				c0.6,0,1.1-0.4,1.5-0.9C343.9,389,343.8,385.6,342.5,383z" />
		</g>
		<g>
			<path class="st15" d="M360.8,356.6c-1.8,2.4-4.7,3.6-7.6,4c-2.9,0.4-5.9,0-8.8-0.5c-16.4-2.6-19.9-4.1-19.9-4.1
				c-5.3-1.3-7.1-1.7-10.1-1.6c-2.9,0.1-4.2,0.6-9.3,1.9c-4,1-9.2,2.4-19.9,4.1c-2.9,0.5-5.9,0.9-8.8,0.5c-2.9-0.4-5.8-1.7-7.6-4
				c-0.4,3.7,1.4,7.5,4.5,9.6c3.1,2.1,7.3,2.3,10.6,0.5c0.4-0.2,0.7-0.4,1.1-0.4c0.9,0,1.5,0.8,2.2,1.3c1.7,1.4,4.4,0.9,6.1-0.4
				c1.7-1.3,2.8-3.4,3.8-5.3c-0.6,2.1,2.2,3.8,4.3,3.1c2.1-0.7,3.3-2.8,4.3-4.7c0.8,1.9,3.8,2.5,5.3,1.1c0.7-0.7,0.6-1.6,1.6-2.3
				c1.1-0.8,2.8-0.8,4-0.2c1.3,0.7,1.1,1.7,2.1,2.3c0.8,0.5,2.4,0.6,5.3-1.1c1,1.9,2.2,4,4.3,4.7c2.1,0.7,4.9-1.1,4.3-3.1
				c1,2,2.1,4,3.8,5.3c1.7,1.3,4.4,1.8,6.1,0.4c0.7-0.5,1.3-1.4,2.2-1.3c0.4,0,0.8,0.2,1.1,0.4c3.3,1.7,7.5,1.5,10.6-0.5
				C359.4,364.1,361.2,360.3,360.8,356.6z" />
		</g>
		<g>
			<path class="st16" d="M342.5,385.5c-1.3-2.6-3.6-4.6-5.9-6.4c-3.6-2.7-7.6-5.9-13.8-7.7c-2-0.6-4.7-1.3-8.3-1.3
				c-3.2,0.1-5.5,0.8-7.7,1.5c-6.6,2.1-10.8,5.4-13.8,7.7c-2.3,1.7-4.6,3.7-5.9,6.4s-1.4,6,0.5,8.3c0.4,0.5,0.9,0.9,1.5,0.9
				c0.6,0,1.1-0.5,1.4-1c0.9-1.5,0.9-3.5,0-5c0.6,1.3,2.6,1.2,3.5,0.1c0.6-0.8,0.8-1.8,0.7-2.9c0.5,0.9,1.8,1.5,2.9,1.2
				c1.5-0.5,2.3-2,2.7-3.5c0.4-1.5,0.4-3.1,1-4.5c0.3,1,1.5,1.6,2.6,1.4c1.1-0.1,2-0.8,2.7-1.5c1.3-1.2,2.2-2.8,2.8-4.5
				c0-0.1,0.1-0.4,0.3-0.5c0.4-0.1,0.8,1,1.4,1.7c1.5,1.6,5.5,1.6,7.3-0.2c0.6-0.6,1.1-1.4,1.5-1.3c0.3,0.1,0.3,0.6,0.4,1.2
				c0.4,1.4,1.4,2.3,2.6,3.3c1.2,1,1.9,1.4,2.7,1.5c1.1,0.1,2.3-0.4,2.6-1.4c0.5,1.4,0.6,3,1,4.5c0.4,1.5,1.2,3,2.7,3.5
				c1.1,0.4,2.4-0.2,2.9-1.2c-0.1,1,0.1,2.1,0.7,2.9c0.9,1.1,2.9,1.2,3.5-0.1c-0.9,1.5-0.9,3.5,0,5c0.3,0.5,0.8,1,1.4,1
				c0.6,0,1.1-0.4,1.5-0.9C343.9,391.5,343.8,388.1,342.5,385.5z" />
		</g>
		<g>
			<path class="st16" d="M360.8,358.6c-1.8,2.4-4.7,3.6-7.6,4c-2.9,0.4-5.9,0-8.8-0.5c-16.4-2.6-19.9-4.1-19.9-4.1
				c-5.3-1.3-7.1-1.7-10.1-1.6c-2.9,0.1-4.2,0.6-9.3,1.9c-4,1-9.2,2.4-19.9,4.1c-2.9,0.5-5.9,0.9-8.8,0.5c-2.9-0.4-5.8-1.7-7.6-4
				c-0.4,3.7,1.4,7.5,4.5,9.6c3.1,2.1,7.3,2.3,10.6,0.5c0.4-0.2,0.7-0.4,1.1-0.4c0.9,0,1.5,0.8,2.2,1.3c1.7,1.4,4.4,0.9,6.1-0.4
				c1.7-1.3,2.8-3.4,3.8-5.3c-0.6,2.1,2.2,3.8,4.3,3.1c2.1-0.7,3.3-2.8,4.3-4.7c0.8,1.9,3.8,2.5,5.3,1.1c0.7-0.7,0.6-1.6,1.6-2.3
				c1.1-0.8,2.8-0.8,4-0.2c1.3,0.7,1.1,1.7,2.1,2.3c0.8,0.5,2.4,0.6,5.3-1.1c1,1.9,2.2,4,4.3,4.7c2.1,0.7,4.9-1.1,4.3-3.1
				c1,2,2.1,4,3.8,5.3c1.7,1.3,4.4,1.8,6.1,0.4c0.7-0.5,1.3-1.4,2.2-1.3c0.4,0,0.8,0.2,1.1,0.4c3.3,1.7,7.5,1.5,10.6-0.5
				C359.4,366.1,361.2,362.3,360.8,358.6z" />
		</g>
		<g>
			<path class="st15" d="M348.2,261.9c-1.1-0.9-2.5-1-2.9-1c-4.1-0.1-11.3-1.9-14.2-3c-4.2-1.5-7.6-3.8-13.2-9.7
				c-0.7-0.7-1.5-1.4-2.3-2.2c-0.5-0.5-1.4-0.5-1.9,0c-0.7,0.6-1.5,1.4-2.4,2.2c-6.4,5.6-9.6,8.4-13.2,9.7c-2.9,1.1-10.2,2.9-14.2,3
				c-0.4,0-1.8,0.1-2.9,1c-0.8,0.7-1.1,2.1-0.7,2.8c0.6,1,3.1,0.9,6-0.4c0.2,0.2,2.7,2.7,6.2,2.1c3.2-0.5,4.8-3.2,5-3.5
				c0.2,0.2,3.7,3.6,8.2,2.6c2.9-0.7,4.6-2.7,5-3.4c0.1,0.2,1.4,2,3.7,2.1c2.5,0.1,3.8-2,3.9-2.1c0.5,0.6,2.1,2.7,5,3.4
				c4.5,1,8-2.3,8.2-2.6c0.2,0.3,1.8,3,5,3.5c3.6,0.6,6-1.9,6.2-2.1c3,1.4,5.4,1.4,6,0.4C349.4,264,349.1,262.6,348.2,261.9z" />
		</g>
		<g>
			<path class="st16" d="M348.2,264.4c-1.1-0.9-2.5-1-2.9-1c-4.1-0.1-11.3-1.9-14.2-3c-4.2-1.5-7.6-3.8-13.2-9.7
				c-0.7-0.7-1.5-1.4-2.3-2.2c-0.5-0.5-1.4-0.5-1.9,0c-0.7,0.6-1.5,1.4-2.4,2.2c-6.4,5.6-9.6,8.4-13.2,9.7c-2.9,1.1-10.2,2.9-14.2,3
				c-0.4,0-1.8,0.1-2.9,1c-0.8,0.7-1.1,2.1-0.7,2.8c0.6,1,3.1,0.9,6-0.4c0.2,0.2,2.7,2.7,6.2,2.1c3.2-0.5,4.8-3.2,5-3.5
				c1.7,2.4,4.5,3.5,7,2.8c2.7-0.7,3.9-3.1,4.1-3.5c0.2,0.3,2.4,3.1,6.1,3.1c3.8,0,5.9-2.8,6.1-3.1c0.1,0.2,1.3,3.1,4.4,3.7
				c2.4,0.5,5-0.7,6.4-3c0.2,0.3,1.8,3,5,3.5c3.6,0.6,6-1.9,6.2-2.1c3,1.4,5.4,1.4,6,0.4C349.4,266.5,349.1,265.1,348.2,264.4z" />
		</g>
	</g>
	<g>
		<path class="st11" d="M196.3,425.1c-0.4,0.4-2.3,1.9-5,1.9c-2.7,0-4.4-1.5-4.9-1.9c0-47.7,0-95.3,0-143h9.9V425.1z" />
		<g>
			<defs>
				<path id="SVGID_3_" d="M196.3,425.1c-0.4,0.4-2.3,1.9-5,1.9c-2.7,0-4.4-1.5-4.9-1.9c0-47.7,0-95.3,0-143h9.9V425.1z" />
			</defs>
			<clipPath id="SVGID_4_">
				<use xlink:href="#SVGID_3_" style="overflow:visible;" />
			</clipPath>
			<g class="st17">
				<path class="st13" d="M187.5,295.2c0.2,0.2,2.7,3,1.8,6.5c-0.6,2.2-2.2,3.4-2.8,3.8" />
				<path class="st13" d="M186.8,289.4c1.1,0.2,3.1,0.7,4.5,2.4c1.5,1.8,1.4,3.9,1.3,6.5c-0.1,2.2-0.4,7.7-3.9,9.6
				c-0.7,0.4-1.4,0.5-1.8,0.6" />
				<path class="st13" d="M186.3,287.2c0.9,0,2.4,0.2,3.9,1c3.5,1.9,4.4,5.6,4.8,7.3c1,4-0.1,7.2-0.4,8.2c-0.5,1.5-1.3,3.8-3.6,5.5
				c-1.8,1.3-3.6,1.7-4.6,1.8" />
				<path class="st13" d="M196.7,304.6c-0.3,1.5-0.9,3.6-2.3,5.7c-0.8,1.2-1.9,2.7-3.9,3.9c-1.6,0.9-3.1,1.2-4.1,1.3" />
				<path class="st13" d="M196.7,322c-0.4,0.2-1.2,0.7-1.8,1.8c-0.1,0.2-0.5,0.9-0.5,2c0,0.5,0,1.4,0.5,2.2c0.6,0.9,1.4,1.2,1.7,1.3" />
				<path class="st13" d="M197.1,319.2c-0.7,0.1-1.9,0.4-3,1.2c-1.6,1.2-2.2,2.9-2.4,3.5c-0.4,1.2-0.4,2.1-0.3,3c0,0.9,0,1.9,0.5,3
				c0.6,1.4,1.4,2.2,1.6,2.3c0.4,0.4,1,0.9,1.8,1.1c0.6,0.2,1.1,0.1,1.4,0.1" />
				<path class="st13" d="M196.7,316.9c-0.9,0.2-2.2,0.7-3.6,1.6c-0.8,0.5-2.2,1.4-3.2,3.1c-0.9,1.4-1.1,2.7-1.4,4.7
				c-0.3,1.8-0.5,3.1-0.1,4.8c0.4,2,1.4,3.4,1.8,4c0.4,0.6,0.9,1.3,1.9,2.1c0.5,0.4,1.5,1.1,2.9,1.4c0.7,0.1,1.3,0.1,1.7,0.1" />
				<path class="st13" d="M196.7,356.7c-1.3-0.2-4.9-0.9-7.6-3.8c-0.7-0.7-1.9-2.1-2.4-4.3c-0.4-1.7-0.2-3.1,0-3.9" />
				<path class="st13" d="M186.8,364.5c1.2,0.7,1.8,1.6,2.1,2.1c1,1.6,1.5,4.3,0.1,5.8c-0.5,0.5-1.1,0.7-1.5,0.8" />
				<path class="st13" d="M186.8,360.4c0.9,0.4,2.2,1.1,3.4,2.4c2.3,2.5,2.8,5.3,3,6.7c0.2,1.3,0.5,4-0.8,6.6c-0.4,0.7-1,1.9-2.4,2.9
				c-1.2,0.8-2.5,1.1-3.1,1.1" />
				<path class="st13" d="M186.8,354.8c1.1,0.8,2.7,2,4.5,3.6c0.8,0.7,2.3,2.1,3.3,3.5c4.5,6,1.9,14.8,1.7,15.4
				c-0.6,1.9-1.3,4.1-3.5,6c-2.3,2-4.8,2.4-6,2.5" />
				<path class="st13" d="M196.7,385.1c0.1,0.8,0.1,3.5-1.6,6c-0.4,0.5-2.2,3.1-5.5,3.6c-1.2,0.2-2.1,0-2.8-0.1" />
				<path class="st13" d="M196.7,392.2c-0.2,1-0.7,2.3-1.5,3.5c-2.7,3.9-7.4,4.5-8.4,4.6" />
				<path class="st13" d="M196.7,406c-0.5,0.6-1.3,1.6-1.9,2.9c-0.5,1-1,2.2-1,3.8c0,1.5,0.6,2.7,1,3.5" />
				<path class="st13" d="M196.7,401.3c-1,0.5-2.5,1.4-3.8,3.1c-2.3,3-2.2,6.3-2.1,7.8c0.1,4,1.9,6.9,2.8,8.1" />
				<path class="st13" d="M196.7,398.5c-1.4,0.6-5.8,2.7-7.9,7.5c-1.4,3.2-1.1,6.1-1,7.9c0.3,3.9,1.7,6.8,2.6,8.4" />
				<path class="st13" d="M196.7,344.2c-1.2,0-4.5-0.3-7.3-2.7c-0.5-0.4-1.4-1.3-2.2-2.7c-1.8-3.1-1.5-6.3-1.3-7.5" />
			</g>
		</g>
		<g>
			<path class="st15" d="M234.1,311.5c-0.1-1.3-1-2.3-1.8-3.3c-5.1-5.7-12.2-9.2-19.5-11.6c-6-1.7-12-3.3-18.1-5
				c-0.7-0.3-2-0.7-3.6-0.7c-1.6,0-2.8,0.4-3.5,0.8c-6,1.7-12,3.5-17.9,5.2c-7.3,2.4-14.4,5.8-19.5,11.6c-0.8,0.9-1.6,2-1.8,3.3
				c-0.1,1.3,0.6,2.7,1.9,2.9c1.9,0.2,3.2-2.4,5.1-2.3c0.7,0,1.3,0.3,1.9,0.5c2.1,0.6,4.7-0.7,5.3-2.9c0.2-0.5,0.2-1.1,0.7-1.4
				c0.6-0.4,1.4-0.1,2.1,0.1c3.6,1.2,7.9-0.9,9.2-4.5c1.1,0.6,2.9,1.4,4.8,1c2.6-0.6,2.9-3,5.5-3.7c2.3-0.6,2.8,1.2,6.2,1.2
				c3.8,0.1,4.7-2,7.2-1.2c2.4,0.7,2.5,2.8,4.9,3.5c1.8,0.5,3.6-0.3,4.8-1c1.3,3.5,5.6,5.6,9.2,4.5c0.7-0.2,1.5-0.5,2.1-0.1
				c0.4,0.3,0.5,0.9,0.7,1.4c0.7,2.1,3.2,3.5,5.3,2.9c0.6-0.2,1.3-0.5,1.9-0.5c1.9,0,3.2,2.6,5.1,2.3
				C233.5,314.2,234.3,312.8,234.1,311.5z" />
		</g>
		<g>
			<path class="st16" d="M234.1,313.5c-0.1-1.3-1-2.3-1.8-3.3c-5.1-5.7-12.2-9.2-19.5-11.6c-6-1.7-12-3.3-18.1-5
				c-0.7-0.3-2-0.7-3.6-0.7c-1.6,0-2.8,0.4-3.5,0.8c-6,1.7-12,3.5-17.9,5.2c-7.3,2.4-14.4,5.8-19.5,11.6c-0.8,0.9-1.6,2-1.8,3.3
				c-0.1,1.3,0.6,2.7,1.9,2.9c1.9,0.2,3.2-2.4,5.1-2.3c0.7,0,1.3,0.3,1.9,0.5c2.1,0.6,4.7-0.7,5.3-2.9c0.2-0.5,0.2-1.1,0.7-1.4
				c0.6-0.4,1.4-0.1,2.1,0.1c3.6,1.2,7.9-0.9,9.2-4.5c1.1,0.6,2.9,1.4,4.8,1c2.6-0.6,2.9-3,5.5-3.7c2.3-0.6,2.8,1.2,6.2,1.2
				c3.8,0.1,4.7-2,7.2-1.2c2.4,0.7,2.5,2.8,4.9,3.5c1.8,0.5,3.6-0.3,4.8-1c1.3,3.5,5.6,5.6,9.2,4.5c0.7-0.2,1.5-0.5,2.1-0.1
				c0.4,0.3,0.5,0.9,0.7,1.4c0.7,2.1,3.2,3.5,5.3,2.9c0.6-0.2,1.3-0.5,1.9-0.5c1.9,0,3.2,2.6,5.1,2.3
				C233.5,316.2,234.3,314.8,234.1,313.5z" />
		</g>
		<g>
			<path class="st15" d="M230.2,363.4c-11.5-6.2-23.7-11.1-36.3-14.5c-1.5-0.4-3-0.4-4.5,0c-12.7,3.4-25.4,8.5-36.9,14.7
				c-1.9,1-3.8,2.1-5.1,3.9c2.8,0.9,6.1-0.1,8-2.3c2.5,2.3,7.3,1.1,8.3-2.1c0.3,2.2,3.2,3.4,5.3,2.6c2.1-0.8,3.4-3,3.8-5.2
				c0.4,0.4,2.6,2.6,5.8,2.3c3.1-0.2,5.9-2.7,6.7-6.2c1.3,2.1,3.6,3.4,6.1,3.3c3.9-0.1,5.8-3.4,5.8-3.6c0.8,3.5,3.6,5.9,6.7,6.2
				c3.2,0.3,5.5-2,5.8-2.3c0.4,2.2,1.7,4.4,3.8,5.2c2.1,0.8,4.9-0.4,5.3-2.6c1,3.2,5.8,4.5,8.3,2.1c1.9,2.2,5.2,3.2,8,2.3
				C234,365.5,232.1,364.4,230.2,363.4z" />
		</g>
		<g>
			<path class="st15" d="M234.8,337.4c-15-11-40.2-16.9-40.2-16.9c-0.7-0.2-1.6-0.4-2.7-0.3c-1.5,0-2.6,0.4-2.9,0.6
				c-2.8,1-29.4,9-40.2,16.9c-1.3,0.9-2.8,2.2-2.6,3.3c0.3,1,1.5,1.6,2.5,1.4c1-0.1,1.9-0.8,2.7-1.5c0.3-0.3,0.7-0.7,1.1-0.7
				c0.5,0,0.8,0.4,1.2,0.8c1.2,1.1,3,1.2,4.4,0.7c1.5-0.5,2.7-1.7,3.6-2.9c0.2-0.3,0.5-0.6,0.9-0.7c0.6-0.1,1.1,0.6,1.5,1.1
				c1.3,1.4,3.6,1.3,5.2,0.3s2.7-2.6,4-4c0.2-0.3,0.5-0.5,0.8-0.6c0.5,0,0.8,0.4,1.1,0.8c1.5,1.8,4.2,2.5,6.4,1.7
				c2.2-0.8,3.8-3,3.9-5.4c0.2,0.2,2.5,3.3,6.5,3.1c3.6-0.2,5.5-3,5.8-3.3c0.1,2.3,1.7,4.6,3.9,5.4c2.2,0.8,4.9,0.1,6.4-1.7
				c0.3-0.4,0.7-0.8,1.1-0.8c0.3,0,0.6,0.3,0.8,0.6c1.2,1.4,2.4,3,4,4s4,1.1,5.2-0.3c0.4-0.5,0.9-1.2,1.5-1.1
				c0.4,0.1,0.6,0.4,0.9,0.7c1,1.3,2.1,2.4,3.6,2.9c1.5,0.5,3.3,0.4,4.4-0.7c0.4-0.3,0.7-0.8,1.2-0.8c0.5,0,0.8,0.3,1.1,0.7
				c0.7,0.7,1.6,1.4,2.7,1.5c1,0.1,2.2-0.4,2.5-1.4C237.6,339.6,235.9,338.2,234.8,337.4z" />
		</g>
		<g>
			<path class="st16" d="M234.8,339.4c-15-11-40.2-16.9-40.2-16.9c-0.7-0.2-1.6-0.4-2.7-0.3c-1.5,0-2.6,0.4-2.9,0.6
				c-2.8,1-29.4,9-40.2,16.9c-1.3,0.9-2.8,2.2-2.6,3.3c0.3,1,1.5,1.6,2.5,1.4c1-0.1,1.9-0.8,2.7-1.5c0.3-0.3,0.7-0.7,1.1-0.7
				c0.5,0,0.8,0.4,1.2,0.8c1.2,1.1,3,1.2,4.4,0.7c1.5-0.5,2.7-1.7,3.6-2.9c0.2-0.3,0.5-0.6,0.9-0.7c0.6-0.1,1.1,0.6,1.5,1.1
				c1.3,1.4,3.6,1.3,5.2,0.3s2.7-2.6,4-4c0.2-0.3,0.5-0.5,0.8-0.6c0.5,0,0.8,0.4,1.1,0.8c1.5,1.8,4.2,2.5,6.4,1.7
				c2.2-0.8,3.8-3,3.9-5.4c0.2,0.2,2.5,3.3,6.5,3.1c3.6-0.2,5.5-3,5.8-3.3c0.1,2.3,1.7,4.6,3.9,5.4c2.2,0.8,4.9,0.1,6.4-1.7
				c0.3-0.4,0.7-0.8,1.1-0.8c0.3,0,0.6,0.3,0.8,0.6c1.2,1.4,2.4,3,4,4s4,1.1,5.2-0.3c0.4-0.5,0.9-1.2,1.5-1.1
				c0.4,0.1,0.6,0.4,0.9,0.7c1,1.3,2.1,2.4,3.6,2.9c1.5,0.5,3.3,0.4,4.4-0.7c0.4-0.3,0.7-0.8,1.2-0.8c0.5,0,0.8,0.3,1.1,0.7
				c0.7,0.7,1.6,1.4,2.7,1.5c1,0.1,2.2-0.4,2.5-1.4C237.6,341.6,235.9,340.2,234.8,339.4z" />
		</g>
		<g>
			<path class="st16" d="M230.2,365.9c-11.5-6.2-23.7-11.1-36.3-14.5c-1.5-0.4-3-0.4-4.5,0c-12.7,3.4-25.4,8.5-36.9,14.7
				c-1.9,1-3.8,2.1-5.1,3.9c2.8,0.9,6.1-0.1,8-2.3c2.5,2.3,7.3,1.1,8.3-2.1c0.3,2.2,3.2,3.4,5.3,2.6c2.1-0.8,3.4-3,3.8-5.2
				c0.4,0.4,2.6,2.6,5.8,2.3c3.1-0.2,5.9-2.7,6.7-6.2c1.3,2.1,3.6,3.4,6.1,3.3c3.9-0.1,5.8-3.4,5.8-3.6c0.8,3.5,3.6,5.9,6.7,6.2
				c3.2,0.3,5.5-2,5.8-2.3c0.4,2.2,1.7,4.4,3.8,5.2c2.1,0.8,4.9-0.4,5.3-2.6c1,3.2,5.8,4.5,8.3,2.1c1.9,2.2,5.2,3.2,8,2.3
				C234,368,232.1,366.9,230.2,365.9z" />
		</g>
		<g>
			<path class="st15" d="M219.5,404c-1.3-2.6-3.6-4.6-5.9-6.4c-3.6-2.7-7.6-5.9-13.8-7.7c-2-0.6-4.7-1.3-8.3-1.3
				c-3.2,0.1-5.5,0.8-7.7,1.5c-6.6,2.1-10.8,5.4-13.8,7.7c-2.3,1.7-4.6,3.7-5.9,6.4s-1.4,6,0.5,8.3c0.4,0.5,0.9,0.9,1.5,0.9
				c0.6,0,1.1-0.5,1.4-1c0.9-1.5,0.9-3.5,0-5c0.6,1.3,2.6,1.2,3.5,0.1c0.6-0.8,0.8-1.8,0.7-2.9c0.5,0.9,1.8,1.5,2.9,1.2
				c1.5-0.5,2.3-2,2.7-3.5c0.4-1.5,0.4-3.1,1-4.5c0.3,1,1.5,1.6,2.6,1.4c1.1-0.1,2-0.8,2.7-1.5c1.3-1.2,2.2-2.8,2.8-4.5
				c0.1-0.2,0.1-0.4,0.3-0.5c0.4-0.3,1,0.1,1.2,0.3c1.8,1,6,0.8,7.8-0.2c0.2-0.1,0.9-0.5,1.2-0.3c0.1,0.1,0.2,0.3,0.3,0.5
				c0.6,1.7,1.5,3.2,2.8,4.5c0.8,0.8,1.7,1.4,2.7,1.5c1.1,0.1,2.3-0.4,2.6-1.4c0.5,1.4,0.6,3,1,4.5c0.4,1.5,1.2,3,2.7,3.5
				c1.1,0.4,2.4-0.2,2.9-1.2c-0.1,1,0.1,2.1,0.7,2.9c0.9,1.1,2.9,1.2,3.5-0.1c-0.9,1.5-0.9,3.5,0,5c0.3,0.5,0.8,1,1.4,1
				c0.6,0,1.1-0.4,1.5-0.9C220.9,410,220.8,406.6,219.5,404z" />
		</g>
		<g>
			<path class="st15" d="M237.8,377.6c-1.8,2.4-4.7,3.6-7.6,4c-2.9,0.4-5.9,0-8.8-0.5c-16.4-2.6-19.9-4.1-19.9-4.1
				c-5.3-1.3-7.1-1.7-10.1-1.6c-2.9,0.1-4.2,0.6-9.3,1.9c-4,1-9.2,2.4-19.9,4.1c-2.9,0.5-5.9,0.9-8.8,0.5c-2.9-0.4-5.8-1.7-7.6-4
				c-0.4,3.7,1.4,7.5,4.5,9.6c3.1,2.1,7.3,2.3,10.6,0.5c0.4-0.2,0.7-0.4,1.1-0.4c0.9,0,1.5,0.8,2.2,1.3c1.7,1.4,4.4,0.9,6.1-0.4
				c1.7-1.3,2.8-3.4,3.8-5.3c-0.6,2.1,2.2,3.8,4.3,3.1c2.1-0.7,3.3-2.8,4.3-4.7c0.8,1.9,3.8,2.5,5.3,1.1c0.7-0.7,0.6-1.6,1.6-2.3
				c1.1-0.8,2.8-0.8,4-0.2c1.3,0.7,1.1,1.7,2.1,2.3c0.8,0.5,2.4,0.6,5.3-1.1c1,1.9,2.2,4,4.3,4.7c2.1,0.7,4.9-1.1,4.3-3.1
				c1,2,2.1,4,3.8,5.3c1.7,1.3,4.4,1.8,6.1,0.4c0.7-0.5,1.3-1.4,2.2-1.3c0.4,0,0.8,0.2,1.1,0.4c3.3,1.7,7.5,1.5,10.6-0.5
				C236.4,385.1,238.2,381.3,237.8,377.6z" />
		</g>
		<g>
			<path class="st16" d="M219.5,406.5c-1.3-2.6-3.6-4.6-5.9-6.4c-3.6-2.7-7.6-5.9-13.8-7.7c-2-0.6-4.7-1.3-8.3-1.3
				c-3.2,0.1-5.5,0.8-7.7,1.5c-6.6,2.1-10.8,5.4-13.8,7.7c-2.3,1.7-4.6,3.7-5.9,6.4s-1.4,6,0.5,8.3c0.4,0.5,0.9,0.9,1.5,0.9
				c0.6,0,1.1-0.5,1.4-1c0.9-1.5,0.9-3.5,0-5c0.6,1.3,2.6,1.2,3.5,0.1c0.6-0.8,0.8-1.8,0.7-2.9c0.5,0.9,1.8,1.5,2.9,1.2
				c1.5-0.5,2.3-2,2.7-3.5c0.4-1.5,0.4-3.1,1-4.5c0.3,1,1.5,1.6,2.6,1.4c1.1-0.1,2-0.8,2.7-1.5c1.3-1.2,2.2-2.8,2.8-4.5
				c0-0.1,0.1-0.4,0.3-0.5c0.4-0.1,0.8,1,1.4,1.7c1.5,1.6,5.5,1.6,7.3-0.2c0.6-0.6,1.1-1.4,1.5-1.3c0.3,0.1,0.3,0.6,0.4,1.2
				c0.4,1.4,1.4,2.3,2.6,3.3c1.2,1,1.9,1.4,2.7,1.5c1.1,0.1,2.3-0.4,2.6-1.4c0.5,1.4,0.6,3,1,4.5c0.4,1.5,1.2,3,2.7,3.5
				c1.1,0.4,2.4-0.2,2.9-1.2c-0.1,1,0.1,2.1,0.7,2.9c0.9,1.1,2.9,1.2,3.5-0.1c-0.9,1.5-0.9,3.5,0,5c0.3,0.5,0.8,1,1.4,1
				c0.6,0,1.1-0.4,1.5-0.9C220.9,412.5,220.8,409.1,219.5,406.5z" />
		</g>
		<g>
			<path class="st16" d="M237.8,379.6c-1.8,2.4-4.7,3.6-7.6,4c-2.9,0.4-5.9,0-8.8-0.5c-16.4-2.6-19.9-4.1-19.9-4.1
				c-5.3-1.3-7.1-1.7-10.1-1.6c-2.9,0.1-4.2,0.6-9.3,1.9c-4,1-9.2,2.4-19.9,4.1c-2.9,0.5-5.9,0.9-8.8,0.5c-2.9-0.4-5.8-1.7-7.6-4
				c-0.4,3.7,1.4,7.5,4.5,9.6c3.1,2.1,7.3,2.3,10.6,0.5c0.4-0.2,0.7-0.4,1.1-0.4c0.9,0,1.5,0.8,2.2,1.3c1.7,1.4,4.4,0.9,6.1-0.4
				c1.7-1.3,2.8-3.4,3.8-5.3c-0.6,2.1,2.2,3.8,4.3,3.1c2.1-0.7,3.3-2.8,4.3-4.7c0.8,1.9,3.8,2.5,5.3,1.1c0.7-0.7,0.6-1.6,1.6-2.3
				c1.1-0.8,2.8-0.8,4-0.2c1.3,0.7,1.1,1.7,2.1,2.3c0.8,0.5,2.4,0.6,5.3-1.1c1,1.9,2.2,4,4.3,4.7c2.1,0.7,4.9-1.1,4.3-3.1
				c1,2,2.1,4,3.8,5.3c1.7,1.3,4.4,1.8,6.1,0.4c0.7-0.5,1.3-1.4,2.2-1.3c0.4,0,0.8,0.2,1.1,0.4c3.3,1.7,7.5,1.5,10.6-0.5
				C236.4,387.1,238.2,383.3,237.8,379.6z" />
		</g>
		<g>
			<path class="st15" d="M225.2,282.9c-1.1-0.9-2.5-1-2.9-1c-4.1-0.1-11.3-1.9-14.2-3c-4.2-1.5-7.6-3.8-13.2-9.7
				c-0.7-0.7-1.5-1.4-2.3-2.2c-0.5-0.5-1.4-0.5-1.9,0c-0.7,0.6-1.5,1.4-2.4,2.2c-6.4,5.6-9.6,8.4-13.2,9.7c-2.9,1.1-10.2,2.9-14.2,3
				c-0.4,0-1.8,0.1-2.9,1c-0.8,0.7-1.1,2.1-0.7,2.8c0.6,1,3.1,0.9,6-0.4c0.2,0.2,2.7,2.7,6.2,2.1c3.2-0.5,4.8-3.2,5-3.5
				c0.2,0.2,3.7,3.6,8.2,2.6c2.9-0.7,4.6-2.7,5-3.4c0.1,0.2,1.4,2,3.7,2.1c2.5,0.1,3.8-2,3.9-2.1c0.5,0.6,2.1,2.7,5,3.4
				c4.5,1,8-2.3,8.2-2.6c0.2,0.3,1.8,3,5,3.5c3.6,0.6,6-1.9,6.2-2.1c3,1.4,5.4,1.4,6,0.4C226.4,285,226.1,283.6,225.2,282.9z" />
		</g>
		<g>
			<path class="st16" d="M225.2,285.4c-1.1-0.9-2.5-1-2.9-1c-4.1-0.1-11.3-1.9-14.2-3c-4.2-1.5-7.6-3.8-13.2-9.7
				c-0.7-0.7-1.5-1.4-2.3-2.2c-0.5-0.5-1.4-0.5-1.9,0c-0.7,0.6-1.5,1.4-2.4,2.2c-6.4,5.6-9.6,8.4-13.2,9.7c-2.9,1.1-10.2,2.9-14.2,3
				c-0.4,0-1.8,0.1-2.9,1c-0.8,0.7-1.1,2.1-0.7,2.8c0.6,1,3.1,0.9,6-0.4c0.2,0.2,2.7,2.7,6.2,2.1c3.2-0.5,4.8-3.2,5-3.5
				c1.7,2.4,4.5,3.5,7,2.8c2.7-0.7,3.9-3.1,4.1-3.5c0.2,0.3,2.4,3.1,6.1,3.1c3.8,0,5.9-2.8,6.1-3.1c0.1,0.2,1.3,3.1,4.4,3.7
				c2.4,0.5,5-0.7,6.4-3c0.2,0.3,1.8,3,5,3.5c3.6,0.6,6-1.9,6.2-2.1c3,1.4,5.4,1.4,6,0.4C226.4,287.5,226.1,286.1,225.2,285.4z" />
		</g>
	</g>
	<g name="swingingTree" class="swingingTree">
		<g>
			<path class="st18" d="M376.4,280.7c-2.6-0.4-11-1.6-19.2,1c-18.1,5.9-28.3,28.5-28.5,47.1c-0.1,5.9-0.3,20.2,10.7,31.7
				c7.9,8.3,19.6,12.9,31.1,12.2c19.9-1.2,31.4-16.3,33.2-18.7c14.7-20.5,10.1-52.3-6.5-65.1C388.9,282.6,377.7,280.8,376.4,280.7z" />
		</g>
		<line class="st19" x1="369.2" y1="315.9" x2="369.2" y2="403.9" />
		<path class="st19" d="M350.7,318.5c0.7,1.1,6,9.5,16.3,10.6c8.7,1,17.3-3.6,21.9-11.7" />
		<path class="st19" d="M345.3,340.1c0.9,1.4,7.8,12.2,20.9,13.6c11.1,1.2,22.3-4.7,28.2-15" />
		<path class="st20" d="M384.5,292c2.3,0.8,5.5,2.2,8.8,4.8c4.9,3.9,7.3,8.5,8.4,11.1" />
	</g>
	<g name = "bearFace" class="bearFace">
		<g class="bearBody">
			<path class="st21" d="M441.2,386.4l1.6,15.4c0,2.2-1.8,4-4,4h-10.9c-2.2,0-4-1.8-4-4l2.4-21.3c0-2.2,2.4-5.3,5.3-5.3l3.5,0
				c3-0.1,5.5,3.3,5.5,5.5L441.2,386.4z" />
			<path class="st22" d="M434.2,375.2c2.4,0.8,4,3.7,4,5.4l0.6,5.7l1.6,15.5c0,2.2-1.8,4.1-4,4.1h2.5c2.2,0,4-1.9,4-4.1l-1.6-15.4
				l-0.6-5.7C440.6,378.5,437.9,374.6,434.2,375.2" />
		</g>
		<g class="bearEyes">
			<path class="st23" d="M434.8,382.6L434.8,382.6c-0.3,0-0.5-0.2-0.5-0.5v-0.7c0-0.3,0.2-0.5,0.5-0.5h0c0.3,0,0.5,0.2,0.5,0.5v0.7
				C435.3,382.3,435,382.6,434.8,382.6z" />
			<path class="st23" d="M431,382.6L431,382.6c-0.3,0-0.5-0.2-0.5-0.5v-0.7c0-0.3,0.2-0.5,0.5-0.5l0,0c0.3,0,0.5,0.2,0.5,0.5v0.7
				C431.4,382.3,431.2,382.6,431,382.6z" />
		</g>
	</g>
	<g class="bearNose">
		<path class="st24" d="M428.6,389.8L428.6,389.8c-0.9-1.6-0.4-3.5,1.2-4.4l1.1-0.6c1.6-0.9,3.5-0.4,4.4,1.2v0
				c0.9,1.6,0.4,3.5-1.2,4.4l-1.1,0.6C431.5,391.8,429.5,391.3,428.6,389.8z" />
		<path class="st25" d="M428.6,389.3L428.6,389.3c-0.9-1.6-0.4-3.5,1.2-4.4l1.1-0.6c1.6-0.9,3.5-0.4,4.4,1.2v0
				c0.9,1.6,0.4,3.5-1.2,4.4l-1.1,0.6C431.5,391.3,429.5,390.8,428.6,389.3z" />
		<g>
			<path class="st23" d="M428.7,385.6c0,0.1-0.1,0.3,0,0.5c0.1,0.2,0.3,0.3,0.6,0.3c1.1,0.1,1.8-0.6,2.2-0.3c0.5,0.3,0.3,2.2-0.9,2.9
				c-0.5,0.3-0.9,0.3-1.2,0.3c-0.2,0-0.6-0.1-0.9-0.4c-0.8-0.7-0.5-1.9-0.5-2.2c0,0,0,0,0,0C428.2,386.1,428.5,385.8,428.7,385.6z" />
		</g>
		<circle class="st24" cx="432.8" cy="385.6" r="0.2" />
		<circle class="st24" cx="434.4" cy="385.8" r="0.2" />
		<circle class="st24" cx="433.6" cy="386.8" r="0.2" />
	</g>
	<g class="bearEars">
		<g class="bearEarLeft">
			<path class="st25" d="M428,375.8l-2-2.6c-0.3-0.4-0.9-0.4-1.2,0l-1.8,2c-0.4,0.5-0.2,1.2,0.4,1.3l3.8,0.7
				C428,377.1,428.5,376.3,428,375.8z" />
			<path class="st26" d="M425.1,375.5c0.1,0,1.1-0.3,1.9,0.4c0.4,0.4,0.6,0.9,0.6,1.1" />
		</g>
		<g class="bearEarRight">
			<path class="st25" d="M439.3,376.1l2.6-2.1c0.4-0.3,1-0.2,1.2,0.2l1.3,2.3c0.3,0.5-0.1,1.2-0.7,1.2l-3.8-0.3
				C439.1,377.5,438.8,376.6,439.3,376.1z" />
			<path class="st26" d="M442.2,376.9c-0.2-0.1-0.8-0.4-1.6-0.3c-0.9,0.1-1.4,0.6-1.6,0.8" />
		</g>
	</g>
	<g class="bearBrows">
		<path class="st27 bearBrowLeft" d="M428.8,379.4c0.3-0.7,0.9-1.2,1.7-1.3c0.9-0.1,1.5,0.5,1.6,0.6" />
		<path class="st27 bearBrowRight" d="M436.8,380.2c-0.3-0.2-0.7-0.4-1.3-0.5c-0.7-0.1-1.3,0-1.6,0.1" />
	</g>
	<g>
		<path class="st28" d="M435.1,415.7c-5.1,1-12.1,1.9-20.4,1.3c-7.1-0.5-13.1-2-17.6-3.5c0.1-2.4,0.3-4.8,0.4-7.2
				c0.6-9.4,8.6-16.6,18-16l1.7,0.1c10.6,0.6,18.7,9.8,18.1,20.4L435.1,415.7z" />
		<path class="st28" d="M420.1,414.2c-4.7-0.4-8.9-1.1-12.5-2c-3-0.7-5-3.5-4.8-6.5l0.1-2.1c0.3-5.1,2.8-9.5,6.5-12.4
				c-6.5,2.1-11.4,8-11.8,15.2c-0.1,2.4-0.3,4.8-0.4,7.2c4.5,1.5,10.5,3,17.6,3.5c8.3,0.6,15.3-0.2,20.4-1.3l0.1-2
				C431,414.4,425.8,414.6,420.1,414.2z" />
	</g>
	<g>
		<path class="st29" d="M460.4,419.1c-4.6,0.6-10,0.9-16.1,0.6c-7-0.3-13-1.4-17.9-2.6v0c0.8-13.5,12.4-23.8,25.9-23l1.4,0.1
				c9,0.5,15.9,8.3,15.4,17.3C468.8,416,464.9,419.4,460.4,419.1z" />
		<line class="st29" x1="458" y1="400.8" x2="458" y2="400.8" />
	</g>
	<g class="bearPaws">
		<g class="bearPawRight">
			<g>
				<path class="st28" d="M441.7,397c0.2,0.4,1.3,2,3.3,2.6c0.4,0.1,2.5,0.7,4.2-0.5c1.6-1.1,2.6-3.5,1.8-4.7
				c-0.5-0.7-1.5-0.9-2.9-1.1c-0.8-0.1-2-0.3-3.4,0.2c-2,0.6-3.1,2-3.5,2.6C441.4,396.4,441.5,396.7,441.7,397z" />
			</g>
			<g>
				<path class="st21" d="M441.7,396c0.2,0.4,1.3,2,3.3,2.6c0.4,0.1,2.5,0.7,4.2-0.5c1.6-1.1,2.6-3.5,1.8-4.7
				c-0.5-0.7-1.5-0.9-2.9-1.1c-0.8-0.1-2-0.3-3.4,0.2c-2,0.6-3.1,2-3.5,2.6C441.4,395.4,441.5,395.7,441.7,396z" />
			</g>
			<g>
				<path class="st24" d="M444.7,399.1L444.7,399.1c-0.3,0-0.5-0.2-0.5-0.5v-0.7c0-0.3,0.2-0.5,0.5-0.5l0,0c0.3,0,0.5,0.2,0.5,0.5v0.7
				C445.2,398.9,445,399.1,444.7,399.1z" />
				<path class="st24" d="M446.7,399.1L446.7,399.1c-0.3,0-0.5-0.2-0.5-0.5v-0.7c0-0.3,0.2-0.5,0.5-0.5l0,0c0.3,0,0.5,0.2,0.5,0.5v0.7
				C447.2,398.9,447,399.1,446.7,399.1z" />
				<path class="st24" d="M448.8,399.1L448.8,399.1c-0.3,0-0.5-0.2-0.5-0.5v-0.7c0-0.3,0.2-0.5,0.5-0.5l0,0c0.3,0,0.5,0.2,0.5,0.5v0.7
				C449.2,398.9,449,399.1,448.8,399.1z" />
			</g>
		</g>
		<g class="bearPawLeft">
			<g>
				<path class="st30" d="M415.6,390.5c0,1.2,0.6,2.3,1.4,3.1c0.8,0.8,1.9,1.2,3,1.2c1.6,0.1,3.3-0.5,4.6-1.7c0.2-0.2,0.4-0.4,0.5-0.7
				c0.2-0.7-0.4-1.4-1.1-1.8c-1.8-1-4-1.1-6-1.2c-0.8,0-1.6,0-2.1,0.6L415.6,390.5z" />
			</g>
			<g>
				<path class="st21" d="M415.9,389.4c0,1.3,0.6,2.5,1.5,3.3s2.1,1.2,3.3,1.3c1.8,0.1,3.6-0.5,4.9-1.8c0.2-0.2,0.4-0.4,0.5-0.7
				c0.2-0.8-0.5-1.5-1.1-1.9c-2-1.1-4.3-1.2-6.5-1.2c-0.8,0-1.7,0-2.3,0.6L415.9,389.4z" />
			</g>
			<g>
				<path class="st24" d="M417.9,393.7L417.9,393.7c-0.3-0.1-0.4-0.3-0.4-0.6l0.2-0.7c0.1-0.3,0.3-0.4,0.6-0.4l0,0
				c0.3,0.1,0.4,0.3,0.4,0.6l-0.2,0.7C418.4,393.6,418.1,393.8,417.9,393.7z" />
				<path class="st24" d="M419.8,394.2L419.8,394.2c-0.3-0.1-0.4-0.3-0.4-0.6l0.2-0.7c0.1-0.3,0.3-0.4,0.6-0.4l0,0
				c0.3,0.1,0.4,0.3,0.4,0.6l-0.2,0.7C420.3,394,420.1,394.2,419.8,394.2z" />
				<path class="st24" d="M421.8,394.6L421.8,394.6c-0.3-0.1-0.4-0.3-0.4-0.6l0.2-0.7c0.1-0.3,0.3-0.4,0.6-0.4l0,0
				c0.3,0.1,0.4,0.3,0.4,0.6l-0.2,0.7C422.3,394.5,422.1,394.6,421.8,394.6z" />
			</g>
		</g>
	</g>
	<g>
		<path class="st5" d="M338,421.5c-3.8,0.5-8.3,0.7-13.4,0.5c-5.8-0.3-10.8-1.2-14.9-2.2v0c0.7-11.2,10.3-19.8,21.5-19.1l1.1,0.1
				c7.5,0.4,13.2,6.9,12.8,14.4C344.9,418.9,341.7,421.7,338,421.5z" />
		<line class="st32" x1="335.9" y1="406.3" x2="335.9" y2="406.3" />
	</g>
	<g>
		<path class="st4" d="M320.6,430.9c-7.8,1.6-18.6,2.9-31.4,2c-11-0.8-20.2-3.1-27.2-5.4c0.2-3.7,0.4-7.4,0.7-11.1
				c0.9-14.5,13.3-25.6,27.8-24.7l2.6,0.2c16.4,1,28.9,15.1,28,31.5L320.6,430.9z" />
		<path class="st32" d="M298.6,400.5c1.5,0.3,5.1,1.4,8.4,4.7c3.3,3.4,4.3,7.1,4.6,8.6" />
	</g>
	<g name= "grass1" class="grass">
		<path class="st31" d="M282.9,536.4c-0.4,1.2-2.8,3.5-7.6,8.1c-0.2,0.2-0.6,0.5-1,0.6c-0.9,0.3-1.3-0.4-1.4-0.9
				c-0.2-1.8,0.2-3.8,1.3-5.8c-1.6,0.4-2.9,1.7-4.2,2.6c-1.3,1-3.5,1.8-4.3,1.1c-0.7-0.6,0.3-1.8,1.3-2.7s2.4-1.8,2.7-2.7
				c-3,0.5-5.8,0.7-8.4,0.4c-1.5-0.2-3-1-1.9-2.2c0.5-0.5,1.3-0.8,1.7-1c9.6-3.3,10.6-4.8,14.1-4.8
				C280.4,529.1,284.1,532.3,282.9,536.4z" />
		<path class="st33" d="M268.4,532c-1-1-1.7-3.7-3.1-9.1c0-0.2-0.1-0.6,0.1-0.9c0.4-0.6,1.3-0.4,2-0.1c2,1.1,3.8,2.6,5.2,4.4
				c0.7-1.1,0.3-2.5,0.2-3.8c-0.1-1.3,0.6-3,1.9-2.9c1.1,0.1,1.7,1.3,1.9,2.4c0.2,1.1,0.2,2.3,1,3.1c1.5-1.8,3.4-3.4,5.6-4.5
				c1.2-0.6,3.2-0.9,3.6,0.5c0.2,0.6,0,1.2-0.2,1.5c-3.3,7-2.4,8.5-5,10.3C277.9,535.5,271.8,535.3,268.4,532z" />
	</g>
	<g name= "grass2" class="grass">
		<path class="st33" d="M421.1,418.9c-2.3-1.9-2.8-4.8-2.9-5.6c-0.1-0.7-0.2-2,0.3-2.4c1-0.9,2.6,0.3,3.2,1.6
				c0.6,1.3,1.1,2.9,2.5,3.1c-0.5-2.2-0.6-4.5-0.2-6.7c0.2-0.9,0.4-1.8,1-2.5c0.6-0.7,1.7-0.9,2.4-0.4c0.6,0.5,0.8,1.3,0.9,2
				c0.3,2.1,0.6,4.2,0.9,6.3c1.2-1.5,2.8-2.7,4.5-3.4c0.5-0.2,1.3-0.4,1.6,0.1c0.3,0.4,0,1-0.2,1.3c-1.8,3.8-2.6,5.8-3.2,6.2
				C429.2,421,424.2,421.4,421.1,418.9z" />
	</g>
	<g name= "grass3" class="grass">
		<path class="st4" d="M439.1,458.9c-2.3-1.9-2.8-4.8-2.9-5.6c-0.1-0.7-0.2-2,0.3-2.4c1-0.9,2.6,0.3,3.2,1.6c0.6,1.3,1.1,2.9,2.5,3.1
				c-0.5-2.2-0.6-4.5-0.2-6.7c0.2-0.9,0.4-1.8,1-2.5c0.6-0.7,1.7-0.9,2.4-0.4c0.6,0.5,0.8,1.3,0.9,2c0.3,2.1,0.6,4.2,0.9,6.3
				c1.2-1.5,2.8-2.7,4.5-3.4c0.5-0.2,1.3-0.4,1.6,0.1c0.3,0.4,0,1-0.2,1.3c-1.8,3.8-2.6,5.8-3.2,6.2
				C447.2,461,442.2,461.4,439.1,458.9z" />
	</g>
	<g name= "grass4" class="grass">
		<path class="st33" d="M352.1,404.9c-2.3-1.9-2.8-4.8-2.9-5.6c-0.1-0.7-0.2-2,0.3-2.4c1-0.9,2.6,0.3,3.2,1.6
				c0.6,1.3,1.1,2.9,2.5,3.1c-0.5-2.2-0.6-4.5-0.2-6.7c0.2-0.9,0.4-1.8,1-2.5c0.6-0.7,1.7-0.9,2.4-0.4c0.6,0.5,0.8,1.3,0.9,2
				c0.3,2.1,0.6,4.2,0.9,6.3c1.2-1.5,2.8-2.7,4.5-3.4c0.5-0.2,1.3-0.4,1.6,0.1c0.3,0.4,0,1-0.2,1.3c-1.8,3.8-2.6,5.8-3.2,6.2
				C360.2,407,355.2,407.4,352.1,404.9z" />
	</g>
	<g name= "grass4" class="grass">
		<path class="st33" d="M366.4,409c-1-1-1.7-3.7-3.1-9.1c0-0.2-0.1-0.6,0.1-0.9c0.4-0.6,1.3-0.4,2-0.1c2,1.1,3.8,2.6,5.2,4.4
				c0.7-1.1,0.3-2.5,0.2-3.8c-0.1-1.3,0.6-3,1.9-2.9c1.1,0.1,1.7,1.3,1.9,2.4c0.2,1.1,0.2,2.3,1,3.1c1.5-1.8,3.4-3.4,5.6-4.5
				c1.2-0.6,3.2-0.9,3.6,0.5c0.2,0.6,0,1.2-0.2,1.5c-3.3,7-2.4,8.5-5,10.3C375.9,412.5,369.8,412.3,366.4,409z" />
	</g>
	<polyline class="st31" points="233.8,471.8 113.2,426.9 177.7,412.9 " />
	<path class="st34" d="M233.8,471.8l61.8-35.7c0,0-3.9-58-61.7-71.3L233.8,471.8z" />
	<path class="st35" d="M233.8,364.8c-8.2,0.6-23.5,3-39.1,13.1c-13.5,8.8-20.8,19.3-22.8,22.3c-7.8,11.7-10.6,23-11.7,29.4l73.6,42.2
				L233.8,364.8z" />
	<path class="st23" d="M248.5,425.4c-0.3-6,1.5-16.5,8.6-18.7c4.6-1.4,9.7,1.2,12.5,4l10.6,34.3l-22.8,13.1L248.5,425.4z" />
	<polygon class="st35" points="241.2,461 281.9,407.1 247.3,382.6 " />
	<line class="st36" x1="207.2" y1="409.6" x2="165.8" y2="463.1" />
	<radialGradient id="SVGID_5_" cx="296.9451" cy="495.0811" r="26.9603" gradientTransform="matrix(-1.577319e-02 0.9999 -1.9155 -3.021753e-02 1249.9634 213.133)" gradientUnits="userSpaceOnUse">
		<stop offset="0" style="stop-color:#F1F793" />
		<stop offset="0.1188" style="stop-color:#EBF494" />
		<stop offset="0.2714" style="stop-color:#DBED98" />
		<stop offset="0.4423" style="stop-color:#C1E09D" />
		<stop offset="0.6266" style="stop-color:#9CCEA5" />
		<stop offset="0.8195" style="stop-color:#6EB8AE" />
		<stop offset="1" style="stop-color:#3BA0B9" />
	</radialGradient>
	<ellipse name="fireLight" class="st37 fireLight" cx="296.9" cy="495.1" rx="64.2" ry="27.1" />
	<g>
		<ellipse transform="matrix(0.1934 -0.9811 0.9811 0.1934 -233.6273 757.549)" class="st31 shadowTrunk2" cx="343.9" cy="520.9" rx="3" ry="19.1" />
		<path class="st21" d="M336.9,499.4c-2.8,0-5,0.8-6.1,1.4c-0.1,0.9-0.2,1.9-0.3,2.8l-4.8-2c-0.3-0.1-0.6,0.3-0.4,0.6l1.1,1.2
				l-1.1,0.5c-0.1,0-0.1,0.2,0,0.2l1.8,0.1l3,3.4c-0.4,3.7-0.8,7.5-1.1,11.2c2.1,0.3,4.4,0.5,7,0.5c2.7,0,5.2-0.2,7.2-0.5
				c0-6,0-12.1,0-18.1C342.2,500.2,339.8,499.4,336.9,499.4z" />
		<ellipse class="st38" cx="337.1" cy="500.7" rx="6.3" ry="1.2" />
	</g>
	<line class="st39" x1="309.9" y1="476.1" x2="287.9" y2="464.1" />
	<polyline class="st39" points="280.5,493 287.9,464.1 299.1,482.3 " />
	<path class="st38" d="M307.1,490.4l-14.5,8l-2.9-3.7l-0.1-0.2l14.5-8c0.3-0.1,1.1-0.1,1.8,0.3C307,487.4,307.5,488.9,307.1,490.4z" />
	<g>
		<path class="st40" d="M291.6,494.9c0.4,0.5,0.7,0.9,0.8,1.2c0,0,0.3,0.7,0.4,1.5c0,0.2,0,0.4-0.1,0.5c0,0,0,0.1-0.1,0.1
				c-0.1,0.3-0.5,0.4-0.7,0.4c-0.3,0-0.6-0.1-0.9-0.2c-0.8-0.4-1.6-1-1.8-1.9c-0.1-0.3-0.1-0.7,0-1c0-0.4,0.1-0.9,0.5-1.1
				c0.2-0.1,0.3-0.1,0.5-0.1C290.9,494.4,291.4,494.7,291.6,494.9z" />
	</g>
	<path class="st41 fireRight" d="M303.8,493.1L303.8,493.1c-1.3,0-2.3-1-2.3-2.3v-5.5c0-1.3,1-2.3,2.3-2.3l0,0c1.3,0,2.3,1,2.3,2.3v5.5
				C306.1,492.1,305.1,493.1,303.8,493.1z" />
	<path class="st38" d="M289.4,490.4l14.5,8l2.9-3.7l0.1-0.2l-14.5-8c-0.3-0.1-1.1-0.1-1.8,0.3C289.5,487.4,289,488.9,289.4,490.4z" />
	<path class="st42 fireMiddle" d="M299.3,491.2L299.3,491.2c-1.3,0-2.3-1-2.3-2.3v-9.1c0-1.3,1-2.3,2.3-2.3l0,0c1.3,0,2.3,1,2.3,2.3v9.1
				C301.6,490.2,300.5,491.2,299.3,491.2z" />
	<path class="st43 fireLeft" d="M294.6,493.2L294.6,493.2c-1.3,0-2.3-1-2.3-2.3v-7.1c0-1.3,1-2.3,2.3-2.3l0,0c1.3,0,2.3,1,2.3,2.3v7.1
				C296.9,492.2,295.9,493.2,294.6,493.2z" />
	<g>
		<path class="st38" d="M304.9,494.9c-0.4,0.5-0.7,0.9-0.8,1.2c0,0-0.3,0.7-0.4,1.5c0,0.2,0,0.4,0.1,0.5c0,0,0,0.1,0.1,0.1
				c0.1,0.3,0.5,0.4,0.7,0.4c0.3,0,0.6-0.1,0.9-0.2c0.8-0.4,1.6-1,1.8-1.9c0.1-0.3,0.1-0.7,0-1c0-0.4-0.1-0.9-0.5-1.1
				c-0.2-0.1-0.3-0.1-0.5-0.1C305.6,494.4,305.1,494.7,304.9,494.9z" />
	</g>
	<polyline class="st39" points="302.5,505 309.9,476.1 321.1,494.3 " />
	<ellipse class="st31 shadowTrunk1" cx="235.5" cy="500.8" rx="18.2" ry="2.3" />
	<g>
		<path class="st21" d="M252,500.1c-0.9,0.6-3.2,1.8-6.3,1.8c-3.1,0-5.3-1.2-6.2-1.8c0-4.9,0-7.4,0-12.3H252V500.1z" />
		<ellipse class="st38" cx="245.7" cy="487.8" rx="6.3" ry="1.2" />
	</g>
	<path class="st31" d="M379.7,477.2c0,5.1-8.9,10.2-16.5,11.1c-5.1,0.6-9.2-0.7-12-1.8c-17.2-6.7-34.1-25.1-30.7-30.5
				c2.8-4.4,18.1,1,33.8,6.5C368,467.3,379.7,471.4,379.7,477.2z" />
	<path class="st21" d="M316.6,466.5l36.8,21.1l10.1-12.9l0.3-0.6L326.9,453c-1.2-0.2-3.8-0.5-6.3,1
				C316.9,456.2,315.2,461.3,316.6,466.5z" />
	<g>
		<polygon class="st44" points="338.2,500.9 341.2,499.1 334.7,493.9 332.3,496.5 335.3,500.9 	" />
		<line class="st45" x1="333" y1="496.2" x2="344.8" y2="482.7" />
	</g>
	<g>
		<defs>
			<path id="SVGID_6_" d="M316.6,466.5l36.8,21.1l10.1-12.9l0.3-0.6L326.9,453c-1.2-0.2-3.8-0.5-6.3,1
				C316.9,456.2,315.2,461.3,316.6,466.5z" />
		</defs>
		<clipPath id="SVGID_7_">
			<use xlink:href="#SVGID_6_" style="overflow:visible;" />
		</clipPath>
		<path class="st46" d="M347.2,460.7c-0.1,0.2-2,2.9-0.9,5.9c1.3,3.2,4.9,3.7,5.6,3.7c3.8,0.4,6.3-2.4,6.6-2.7" />
		<path class="st46" d="M341,458.6c-0.4,0.8-1.6,3.7-0.6,6.9c0.8,2.5,2.6,3.9,3.7,4.7c1.9,1.5,3.8,2,4.7,2.3c0.9,0.3,2.9,0.8,5.4,0.4
				c3.1-0.4,5.3-1.9,6.3-2.7" />
		<path class="st46" d="M335.2,456.7c0.5,2.5,0.9,4.5,1.1,5.9c0.4,2.2,0.5,3,1,4.2c0.8,1.6,1.8,2.6,2.9,3.7c1,1,2.6,2.6,5,3.6
				c0.6,0.3,0.6,0.2,4.6,1.3c2.9,0.8,3.3,0.9,3.6,1c1.8,0.4,5,0,10.6-5.2" />
		<path class="st46" d="M316.3,457.3c0.9,1.3,2.4,3.2,4.8,4.5c2.4,1.4,3.5,1,5.5,2.4c2.6,1.8,2.2,3.5,4.4,5.9
				c0.3,0.3,0.5,0.4,0.6,0.6c2.9,2.7,6,4.1,7.4,4.8c4.1,2,7.6,3.6,11,5.8c2.2,1.4,3.9,2.7,4.9,3.6" />
		<path class="st46" d="M319.7,453c0.2,0.3,2,2,4.7,1.9c2.9-0.2,4.4-2.3,4.6-2.6" />
		<path class="st46" d="M318.3,451.8c0.1,0.4,1.2,5,5.1,6.2c2.6,0.9,5.1-0.2,6.5-0.9c2-0.9,3.4-2.2,4.2-3" />
		<path class="st46" d="M312.2,461.1c5.5,1,8.8,3.1,10.9,4.9c2.2,2,2.7,3.2,5.1,5.5c3.6,3.4,6.9,4.6,10.9,6.4
				c3.7,1.7,8.8,4.5,14.9,8.9" />
		<path class="st46" d="M316.8,453.7c1.2,2.2,2,3.3,3,4.1c1.3,1.1,2.6,1.5,3.3,1.8l0,0c2.7,0.9,6.5,2.6,10,5.9
				c2.4,2.3,3.6,4.3,4.4,5.4c2.5,3.5,7.7,7.5,19.6,9.4" />
		<path class="st46" d="M334.7,453.6c0.1,0.3,0.5,3.4-1.8,5.8c-1.7,1.7-4.3,2.3-6.7,1.6" />
	</g>
	<g>
		<path class="st38" d="M356.9,475.3c-1.5,1.6-2.4,3.1-2.9,4.2c0,0-1.2,2.4-1.5,5.3c-0.1,0.9,0,1.4,0.2,1.9c0.1,0.2,0.1,0.3,0.2,0.4
				c0.5,0.9,1.6,1.4,2.6,1.5c1,0,2.1-0.3,3-0.7c2.8-1.2,5.6-3.5,6.3-6.6c0.3-1.2,0.3-2.4,0.2-3.6c-0.1-1.2-0.4-3.1-1.8-3.8
				c-0.6-0.3-1.2-0.3-1.8-0.3C359.3,473.6,357.7,474.6,356.9,475.3z" />
	</g>
	<path class="st47" d="M360.8,480.5c0,0.1-0.3,1.1-1.1,1.4c-0.4,0.2-1.1,0.2-1.3-0.1c-0.2-0.4,0.6-1.4,1.2-1.8c0.5-0.4,1.2-1,1.8-0.8
				c0.7,0.3,0.7,1.7,0.4,2.7c-0.4,1.3-1.5,1.9-1.9,2.1c-0.2,0.1-2.2,1.1-3.1,0.3c-0.9-0.8-0.5-2.8,0.2-4.1c1.2-2.1,4.2-3.4,5.6-2.4
				c1,0.7,1,2.2,1,2.9c0,2.2-1.3,3.6-1.6,3.9c-0.7,0.7-1.4,1-2.5,1.4c-1.8,0.7-3.4,1.4-4.4,0.7c-0.7-0.6-0.7-1.7-0.7-3.2
				c0-0.9,0.1-2.6,1.2-4.4c1-1.5,2.2-2.2,3.5-2.9c1.1-0.6,1.8-0.9,2.5-0.8c0.7,0.1,1.2,0.4,1.4,0.6c1.3,1.1,1.5,3.7,0.3,6.3" />
	<g>
		<defs>
			<path id="SVGID_8_" d="M343.3,518.9c-2.1,0.3-4.6,0.5-7.3,0.5c-2.6,0-5-0.2-7.1-0.5c0.6-6,1.2-12.1,1.9-18.1
				c1.2-0.5,3.3-1.4,6.2-1.4c2.9,0,5.2,0.8,6.3,1.4C343.3,506.8,343.3,512.8,343.3,518.9z" />
		</defs>
		<clipPath id="SVGID_9_">
			<use xlink:href="#SVGID_8_" style="overflow:visible;" />
		</clipPath>
		<path class="st48" d="M330.1,522.8c0.9-1.2,1.9-3.1,1.9-5.5c0-2-0.7-3.1-0.9-4.8c-0.3-1.9-0.1-4.6,2.3-8.4" />
		<path class="st48" d="M333.5,523.4c0.7-1.4,1.8-3.9,1.9-7.2c0-1.2-0.3-2.1-0.6-4.4c-0.2-1.9-0.2-3.5-0.2-4.5" />
		<path class="st48" d="M339.3,523.6c0.1-3.4,0-6.2-0.2-8.1c-0.2-2.6-0.4-3.3-0.2-5.1c0.2-1.3,0.5-2.5,0.5-4.6c0-0.9,0-1.6-0.1-2.1" />
		<path class="st48" d="M341.3,523.3c0-2.7,0.1-4.9,0.2-6.4c0.2-2.3,0.4-3,0.2-4.6c-0.1-1.5-0.4-2.3-0.3-3.8c0-1.3,0.3-2.4,0.4-3.1" />
	</g>
	<g class="fireParticle fireParticleCross1">
		<line class="st49" x1="307" y1="463.4" x2="302" y2="469.2" />
		<line class="st49" x1="307.4" y1="468.8" x2="301.6" y2="463.8" />
	</g>
	<g class="fireParticle fireParticleCross2">
		<line class="st50" x1="294" y1="420.4" x2="289" y2="426.2" />
		<line class="st50" x1="294.4" y1="425.8" x2="288.6" y2="420.8" />
	</g>
	<rect x="303.8" y="434.2" transform="matrix(0.7071 0.7071 -0.7071 0.7071 398.3329 -88.6017)" class="st51 fireParticle fireParticleSquare1" width="4.7" height="4.7" />
	<rect x="290.5" y="446.3" transform="matrix(0.7071 0.7071 -0.7071 0.7071 403.0301 -75.677)" class="st43 fireParticle fireParticleSquare2" width="4.7" height="4.7" />
	<rect x="295.7" y="472.7" transform="matrix(0.7071 0.7071 -0.7071 0.7071 422.0098 -71.1139)" class="st51 fireParticle fireParticleSquare3" width="2.3" height="2.3" />
	<rect x="303.3" y="478.4" transform="matrix(0.7071 0.7071 -0.7071 0.7071 428.2769 -74.8402)" class="st43 fireParticle fireParticleSquare4" width="2.3" height="2.3" />
	<g>
		<defs>
			<path id="SVGID_10_" d="M252,500.1c-0.9,0.6-3.2,1.8-6.3,1.8c-3.1,0-5.3-1.2-6.2-1.8c0-4.9,0-7.4,0-12.3H252V500.1z" />
		</defs>
		<clipPath id="SVGID_11_">
			<use xlink:href="#SVGID_10_" style="overflow:visible;" />
		</clipPath>
		<path class="st52" d="M237.3,496.5c0.3,0,2.5-0.3,4,1.2c1,1,1.1,2.3,1.2,3.1c0.1,1.4-0.2,2.6-0.4,3.2" />
		<path class="st52" d="M238.1,493.4c0.9,0.1,2.7,0.4,4.5,1.7c0.6,0.4,1.6,1.2,2.4,2.7c1.3,2.6,0.5,5.1,0.2,5.8" />
		<path class="st52" d="M237.9,490.5c2,0.4,3.5,0.9,4.6,1.4c1.7,0.7,3.1,1.3,4.5,2.8c1.1,1.2,1.7,2.4,2.1,3.3
				c0.5,1.2,1.3,3.5,1.2,6.6" />
		<path class="st52" d="M243.9,485.1c1.1,2.2,2.5,4.5,4.3,6.8c1.3,1.7,2,2.3,2.8,3.6c1.1,1.8,2,4.4,1.8,8.1" />
		<path class="st52" d="M248.9,485.3c0.6,1.8,1.3,3.6,2,5.5c0.6,1.5,1.2,3,1.8,4.5" />
	</g>
	<ellipse class="st38" cx="245.7" cy="487.8" rx="6.3" ry="1.2" />
	<g name="swingingTree1" class="swingingTree">
		<g>
			<path class="st18" d="M162.2,344.1c-11.4-1.1-19.6,5.4-21.7,7.1c-11.7,9.6-11.8,24.1-11.8,26.7c0,4.3-0.2,14.2,7.5,22.3
				c5.6,5.9,13.8,9.1,21.9,8.6c13-0.8,20.7-9.9,22.5-12.1c7-8.6,7.5-17.9,7.6-20.6c0.1-2.4,0.1-17.1-11.4-26.1
				C174.8,348.4,169.7,344.8,162.2,344.1z" />
		</g>
		<line class="st19" x1="157.2" y1="368.9" x2="157.2" y2="434.9" />
		<path class="st19" d="M144.2,370.7c0.5,0.8,4.2,6.6,11.4,7.4c6.1,0.7,12.2-2.5,15.4-8.2" />
		<path class="st19" d="M140.3,385.8c0.6,1,5.5,8.5,14.7,9.6c7.8,0.9,15.6-3.3,19.8-10.5" />
		<path class="st20" d="M163.3,351c1.5,0.2,4.5,0.8,7.4,3c2.3,1.7,3.6,3.6,4.3,4.8" />
	</g>
	<g name="swingingTree2" class="swingingTree">
		<g>
			<path class="st18" d="M485.2,327.1c-2.1-0.4-7.4-1.4-13.5,0.7c-13.7,4.7-19.9,20.9-20,33.1c0,4.1-0.2,14.2,7.5,22.3
				c5.6,5.9,13.8,9.1,21.9,8.6c13.3-0.8,21.2-10.3,23.3-13.2c9.6-13.1,5.3-28,4.9-29.3C505.6,337.8,495.8,329.3,485.2,327.1z" />
		</g>
		<line class="st19" x1="480.2" y1="351.9" x2="480.2" y2="417.9" />
		<path class="st19" d="M467.2,353.7c0.5,0.8,4.2,6.6,11.4,7.4c6.1,0.7,12.2-2.5,15.4-8.2" />
		<path class="st19" d="M463.3,368.8c0.6,1,5.5,8.5,14.7,9.6c7.8,0.9,15.6-3.3,19.8-10.5" />
		<path class="st20" d="M488.7,335.7c1.3,0.2,4.4,0.9,7.3,3.4c2.6,2.2,3.7,4.8,4.1,6.1" />
	</g>
	<path class="st23" d="M261.6,458.9c0-1.4-1.2-2.6-2.6-2.6c-1.4,0-2.6,1.2-2.6,2.6c0,0.7,0.3,1.3,0.7,1.8c-0.4,0.5-0.7,1.1-0.7,1.8
				c0,0.1,0,0.3,0,0.4c-1.1,0.3-1.9,1.3-1.9,2.5c0,1.4,1.2,2.6,2.6,2.6c1.4,0,2.6-1.2,2.6-2.6c0-0.1,0-0.3,0-0.4
				c1.1-0.3,1.9-1.3,1.9-2.5c0-0.7-0.3-1.3-0.7-1.8C261.4,460.2,261.6,459.6,261.6,458.9z" />
	<path class="st53 blueArm" d="M247.7,464.9c1,1.4,3.6,4.6,8.1,6.6c5.1,2.2,9.6,1.5,11.3,1.1" />
	<path class="st54" d="M333.3,443.9l-5.8,1.4c-0.9,0.2-1.3,1.3-0.7,2.1l1.1,1.4c3-0.6,5.2-2.1,5.5-3.9
				C333.4,444.6,333.4,444.3,333.3,443.9z" />
	<path class="st38" d="M346.3,467.4c1.2-0.6,2.1-1.2,2.8-1.6l-7.6-4.4c-0.7,0.2-1.3,0.5-2,0.8c-1.8,0.9-3.3,2.2-4.4,3.9
				c-0.5,0.8-1,1.8-0.6,2.7c0.1,0.3,0.5,0.8,1.8,1.2C339.7,470.9,343.3,469,346.3,467.4z" />
	<path class="st55" d="M329.9,448.6c-0.7,0.8-2.1,2.8-2.5,5.7c-0.5,3.6,0.8,6.3,1.3,7.2" />
	<g>
		<path class="st43" d="M344.2,463.1c0.3-5.5-0.9-9.5-1.8-11.7c-1.4-3.4-3-5.1-3.6-5.7c-1.6-1.6-3.7-2.8-6-3
				c-1.4-0.1-2.9,0.3-3.9,1.3c-1.6,1.9-0.8,4.7-0.1,7.1c1,3.1,1.6,6.5,0.5,9.6c-0.2,0.6-0.5,1.2-0.6,1.9c-0.5,2.6,2.1,5.1,4.2,6.3
				c0.7,0.4,2.9,1.6,5.6,1C341.4,469,343.6,466.4,344.2,463.1z" />
	</g>
	<path class="st56" d="M332.9,461.9c-3.7,0.6-6.1,2-7.6,2.9c-1.2,0.8-2,1.3-2.4,2.3c-1.6,3.3,2.3,7.9,2.6,8.2" />
	<g>
		<path class="st42" d="M343.5,454.6c0-0.1-0.1-0.1-0.1-0.2c0-0.1,0-0.2,0-0.3c-0.3-1.1-0.6-2.1-0.9-2.8c-0.5-1.1-0.9-2-1.4-2.8
				c-0.2-0.2-0.3-0.3-0.4-0.4c0-0.2-0.2-0.5-0.4-0.9c-0.2-0.3-0.4-0.5-0.5-0.7c-0.2-0.2-0.4-0.4-0.7-0.5c-0.9-0.5-1.8-0.4-1.9-0.4
				c-0.2,0-0.5,0.1-0.5,0.1c0,0-0.1,0-0.1,0c-0.4,0.2-0.7,0.5-1.7,1.3c-2.5,1.9-5.1,1.5-6.4,2c0.2,0.7,0.4,1.3,0.5,1.9
				c1,3.1,1.6,6.5,0.5,9.6c0,0.1,0,0.1-0.1,0.2c0.1,0.2,0.2,0.4,0.3,0.5c0.9,1.2,2.4,1.9,3.9,2.1c0.1,0,0.3,0,0.5,0.1
				c1.8,0.2,3.2-0.1,4-0.3c3.7-0.8,5.5-1.2,6.2-2.3c0-0.1,0.1-0.1,0.1-0.2C344.2,458.3,343.9,456.3,343.5,454.6z" />
	</g>
	<g>
		<path class="st54" d="M327.5,447.8c-0.3,0.8,0.5,1,1.3,3.1c0.8,2.1,0.4,4.6,0.4,4.8c-0.1,0.7-0.4,1.6,0,2.8c0,0.1,0.1,0.5,0.4,0.9
				c0.9,1.2,2.4,1.9,3.9,2.1c0.1,0,0.3,0,0.5,0.1c1.8,0.2,3.2-0.1,4-0.3c3.7-0.8,5.5-1.2,6.2-2.3c0.9-1.4,0.6-3,0.6-3.5
				c-0.2-1.5-1-2.5-1.4-2.9c0.1-0.7,0.1-2.2-0.8-3.9c-0.6-1.3-1.5-2-2-2.5c-0.3-0.9-0.7-1.6-1-2c-0.4-0.5-1.4-1.8-2.9-1.9
				c-0.6-0.1-1.1,0.1-1.3,0.2c0,0.3-0.1,0.7-0.2,1.2c-0.2,0.9-0.3,1.3-0.3,1.5C334.1,446.9,328.1,445.9,327.5,447.8z" />
	</g>
	<path class="st56" d="M340.7,464.6c-3.2,1.3-5.5,2.8-7.1,3.9c-1.7,1.2-2.2,1.7-2.4,2.3c-1.5,3.1,2,7.5,2.6,8.2" />
	<g>
		<path class="st42" d="M342.4,451.3c-1.4-3.4-3-5.1-3.6-5.7c-1.6-1.6-3.7-2.8-6-3c-1.1-0.1-2.3,0.1-3.2,0.7c1.2,0.5,2.3,1.3,3.2,2.2
				c0.7,0.7,2.2,2.3,3.6,5.7c0.9,2.2,2.1,6.2,1.8,11.7c-0.5,2.8-2.1,5.1-4.3,6.2c1.1,0.5,2.8,1,4.7,0.5c2.9-0.7,5.1-3.4,5.7-6.7
				C344.5,457.6,343.3,453.5,342.4,451.3z" />
	</g>
	<g>
		<path class="st57" d="M344.7,455.4c-0.2-1.5-1-2.5-1.4-2.9c0.1-0.7,0.1-2.2-0.8-3.9c-0.6-1.3-1.5-2-2-2.5c-0.3-0.9-0.7-1.6-1-2
				c-0.4-0.5-1.4-1.8-2.9-1.9c-0.6-0.1-1.1,0.1-1.3,0.2c0,0.3-0.1,0.7-0.2,1.2c-0.2,0.9-0.3,1.3-0.3,1.5c-0.2,0.5-0.7,0.8-1.5,1
				c0.8,0.9,2.1,2.4,3.2,5.3c0.8,1.9,1.8,5.3,1.9,9.8c3.4-0.8,5.2-1.2,5.9-2.2C345,457.6,344.8,455.9,344.7,455.4z" />
	</g>
	<path class="st42" d="M335.7,477.5c-1.8-2.2-2.8-4.5-2.3-5.5c0-0.1,0.3-0.4,1.6-1.3c2-1.4,4.3-2.7,6.7-3.7c1.3-0.5,1.9-2,1.3-3.3
				c-0.1-0.3-0.3-0.5-0.5-0.8c-2.2,1-4.4,2.2-6.3,3.6c-1.9,1.3-2.7,2.1-3.3,3.2c-2,4.1,1.2,8.9,2.8,10.8
				C336.4,479.6,336.4,478.4,335.7,477.5z" />
	<g>
		<path class="st58" d="M337.2,444c-0.9-2.5-2.1-4.3-2.9-5.3c-1.3-1.5-2.1-2.5-3.6-2.8c-1.3-0.2-3,0.2-4,1.4
				c-0.5,0.5-0.7,1.1-0.8,1.4c-0.9,2.5,0.5,5,1.2,6.5c0.5,0.9,0.7,1.4,1.3,1.8c1.5,1.1,3.5,0.6,4.3,0.3
				C335.2,446.7,336.7,444.8,337.2,444z" />
	</g>
	<g>
		<g>
			<path class="st59" d="M330.7,449.4c2.3,2.8,1.8,7.7-0.6,10.4c-0.3,0.4,0.2,0.9,0.5,0.5c2.6-3,3.1-8.3,0.6-11.5
				C330.9,448.5,330.4,449,330.7,449.4L330.7,449.4z" />
		</g>
	</g>
	<g>
		<path class="st60" d="M333,439.8l0.5-1.1c0-0.3-0.1-2.2-1.4-3.1c-0.2-0.1-0.6-0.5-1.2-0.4c-0.5,0-0.8,0.3-1.1,0.5
				c-1,0.6-1.6,0.1-2.9,0.3c-0.1,0.1-0.2,0.2-0.3,0.3c-0.5,0.5-0.7,1.1-0.8,1.4c-0.3,1-0.3,1.9-0.2,2.8c0.4,0.2,0.9,0.3,1.3,0.3
				c1.1,0,2-0.6,3-1S332.2,439.2,333,439.8z" />
	</g>
	<g>
		<path class="st61" d="M333.5,437.7c0-0.3-0.1-2.2-1.4-3.1c-0.2-0.1-0.6-0.5-1.2-0.4c-0.5,0-0.8,0.3-1.1,0.5c-1.1,0.6-1.7,0-3.2,0.3
				c-0.4,0.1-2.1,0.6-2.5,1.8c-0.2,0.6,0,1.2,0.3,1.7c0.5,0.8,1.5,1.3,2.5,1.3c1.1,0,2-0.6,3-1c1-0.4,2.2-0.7,3.1-0.1L333.5,437.7z" />
	</g>
	<g>
		<g>
			<path class="st62" d="M332.7,438.5c-1.2-0.4-2.1-0.2-3.3,0.2c-0.6,0.2-1.3,0.6-1.9,0.7c-1.1,0.2-2.4-0.1-2.9-1.2
				c-0.1-0.3-0.2-0.5-0.2-0.8c-0.2-0.8,0.3-1.2,1.7-1.1c-0.4-0.3-0.9,0.2-0.5,0.5c0.7,0.7,1.7,0.1,1.4-0.9c-0.4-1.5-2.5-1.2-3.1,0
				c-0.8,1.4,0.1,3.6,1.5,4.2c2.5,1,4.6-1.7,7.1-0.8C333,439.4,333.2,438.7,332.7,438.5L332.7,438.5z" />
		</g>
	</g>
	<g>
		<path class="st61" d="M331.7,438.2c-0.3,0.5,0.8,1.4,1.6,2.7c0.5,1,0.8,1.9,0.9,2.6c0.3-0.1,0.8-0.3,1.3-0.7
				c0.5-0.4,0.7-0.8,0.9-1.1c-0.2-0.6-0.5-1.2-0.8-1.9c-0.6-1.2-1.4-2-2-2.6c-0.2,0.1-0.5,0.4-1,0.6
				C331.9,438.1,331.7,438.1,331.7,438.2z" />
	</g>
	<circle class="st63" cx="332.3" cy="443.7" r="1.9" />
	<g>
		<path class="st21" d="M327.4,444.2c-0.3,0.1-0.7,0.2-0.8,0.6c-0.1,0.3,0.1,0.7,0.3,1.1c0.8,1.6,1.6,2.4,1.6,2.4
				c0.9,1,1.3,1.5,1.7,1.6c0.9,0.1,1.7-0.8,2.1-1.2c0.5-0.5,0.5-0.8,1.1-1.2c0.5-0.4,0.8-0.4,1.3-0.6c0.2-0.1,1.8-0.8,2.3-1.9
				c0.6-1.4-0.8-3.2-0.9-3.4c-1.3,1.7-2.4,2.2-3.3,2.4C331.3,444.1,329.1,443.6,327.4,444.2z" />
	</g>
	<circle class="st58" cx="334.4" cy="441.9" r="1.3" />
	<g>
		<g>
			<path class="st61" d="M324.3,445.3c-0.3,0.9,0.3,1.5,1.2,1.3c0.5-0.1,0.9-0.3,1.2-0.6c0.4-0.4,0.9-2,1.7-1.4
				c0.1,0.1,0.4,0.2,0.5,0c0.9-1,2.7,1.1,3.9,0.8c1-0.2,1.3-0.9,0.7-1.7c-0.3-0.4-0.9,0-0.6,0.4c-0.5,0.6-1.1,0.7-1.6,0.1
				c-0.2-0.2-0.5-0.3-0.7-0.5c-0.2-0.1-0.4-0.3-0.6-0.3c-0.6-0.1-1.2,0.2-1.6,0.6c0.2,0,0.4,0,0.5,0c-0.5-0.4-0.9-0.6-1.5-0.3
				c-0.3,0.1-0.4,0.4-0.6,0.6c-0.2,0.3-0.3,0.6-0.5,0.8c-0.1,0.2-1.7,1.2-1.4,0.3C325.2,445,324.5,444.8,324.3,445.3L324.3,445.3z" />
		</g>
	</g>
	<path class="st54" d="M337.2,444.6l-5.8,1.4c-0.9,0.2-1.3,1.3-0.7,2.1l1.1,1.4c3-0.6,5.2-2.1,5.5-3.9
				C337.2,445.3,337.2,445,337.2,444.6z" />
	<g>
		<g>
			<path class="st64" d="M329.9,435.9c0.6,0,1.2,0.2,1.6,0.7c0.3,0.4,0.8-0.2,0.5-0.5c-0.5-0.6-1.3-0.9-2.1-0.9
				C329.5,435.1,329.5,435.9,329.9,435.9L329.9,435.9z" />
		</g>
	</g>
	<g class="characterEyes">
		<path class="st65" d="M329.6,442.3L329.6,442.3c-0.3,0-0.5-0.2-0.5-0.5l0,0c0-0.3,0.2-0.5,0.5-0.5l0,0c0.3,0,0.5,0.2,0.5,0.5l0,0
				C330.1,442.1,329.8,442.3,329.6,442.3z" />
		<path class="st65" d="M327.2,442.5L327.2,442.5c-0.3,0-0.5-0.2-0.5-0.5v0c0-0.3,0.2-0.5,0.5-0.5l0,0c0.3,0,0.5,0.2,0.5,0.5v0
				C327.8,442.2,327.5,442.5,327.2,442.5z" />
	</g>
	<path class="st66" d="M338.1,444.9c0.2,0.1,0.8,0.5,1.2,1.2c0.3,0.6,0.3,1.1,0.3,1.4" />
	<path class="st67" d="M327.2,444.7c0-0.1,0-0.3,0-0.4c0-1,0.4-1.7,0.7-2.1c0.3,0,0.7,0,1,0c0.2,0.4,0.5,1,0.5,1.9c0,0.2,0,0.4,0,0.5
				c0,0-0.4,0.6-1.1,0.7C327.6,445.2,327.2,444.7,327.2,444.7z" />
	<g>
		<path class="st68" d="M240.4,482.1c-0.3-5.5,0.9-9.5,1.8-11.7c1.4-3.4,3-5.1,3.6-5.7c1.6-1.6,3.7-2.8,6-3c1.4-0.1,2.9,0.3,3.9,1.3
				c1.6,1.9,0.8,4.7,0.1,7.1c-1,3.1-1.6,6.5-0.5,9.6c0.2,0.6,0.5,1.2,0.6,1.9c0.5,2.6-2.1,5.1-4.2,6.3c-0.7,0.4-2.9,1.6-5.6,1
				C243.2,488,241,485.4,240.4,482.1z" />
	</g>
	<path class="st69" d="M243,481.8c1.7,0.3,4.3,0.8,7.4,1.7c1.2,0.3,1.9,0.5,2.3,0.7c1.2,0.5,4.5,2.4,5.4,12.3" />
	<path class="st69" d="M246.8,486.3c0.8-0.6,2.9-2,5.9-2.1c0,0,2.3-0.1,4.6,1c4.1,1.8,7.2,7.5,8,14.6" />
	<g>
		<path class="st70" d="M252.2,470.3c-0.9,2.2-2.1,6.2-1.8,11.7c0.3,1.9,1.2,3.7,2.5,4.9c-0.4,0.3-0.8,0.6-1.2,0.8
				c-0.7,0.4-2.9,1.6-5.6,1c-2.9-0.7-5.1-3.3-5.7-6.7c-0.3-5.5,0.9-9.5,1.8-11.7c1.4-3.5,3-5,3.6-5.7c1.6-1.6,3.7-2.8,6-3
				c1.4-0.1,2.9,0.3,3.9,1.3c0.3,0.4,0.5,0.7,0.7,1.2c-0.2,0.2-0.4,0.3-0.5,0.5C255.2,465.3,253.6,466.9,252.2,470.3z" />
	</g>
	<g>
		<path class="st18" d="M257.1,464.3l-5.8-1.4c-0.1,0.4-0.1,0.7,0,1c0.1,0.4,0.2,0.8,0.5,1.2c-0.9-0.2-1.7-0.5-1.9-1
				c-0.1-0.2-0.2-0.6-0.3-1.5c-0.1-0.5-0.2-0.9-0.2-1.2c-0.3-0.1-0.8-0.2-1.3-0.2c-1.5,0.1-2.5,1.4-2.9,1.9c-0.3,0.4-0.7,1.1-1,2
				c-0.5,0.4-1.4,1.2-2,2.5c-0.8,1.6-0.8,3.2-0.8,3.9c-0.4,0.4-1.1,1.4-1.4,2.9c-0.1,0.5-0.3,2.1,0.6,3.5c0.7,1,2.5,1.5,6.2,2.3
				c0.8,0.2,2.2,0.5,4,0.3c0.2,0,0.4,0,0.5-0.1c1.5-0.2,3-0.9,3.9-2.1c0.3-0.4,0.4-0.7,0.4-0.9c0.4-1.2,0.1-2.1,0-2.8
				c0-0.2-0.4-2.6,0.4-4.8c0.5-1.4,1.1-2,1.3-2.5l0.8-1C258.4,465.6,258,464.6,257.1,464.3z" />
	</g>
	<g>
		<path class="st58" d="M247.4,463c0.9-2.5,2.1-4.3,2.9-5.3c1.3-1.5,2.1-2.5,3.6-2.8c1.3-0.2,3,0.2,4,1.4c0.5,0.5,0.7,1.1,0.8,1.4
				c0.9,2.5-0.5,5-1.2,6.5c-0.5,0.9-0.7,1.4-1.3,1.8c-1.5,1.1-3.5,0.6-4.3,0.3C249.4,465.7,247.9,463.8,247.4,463z" />
	</g>
	<g>
		<path class="st60" d="M254.3,464.7l-2.4-0.4c-0.1,0.3-1.3,1.2-1.3,1.5c0.8,0.8-0.2,0.1,1.4,0.5c0.6,0.2,2,0.5,3.3,0.2
				C255.5,465.8,255.1,464.9,254.3,464.7z" />
	</g>
	<path class="st71" d="M253.4,472.1c0-1.4,0.3-2.7,0.7-4.1l0.1,1.1l1.4-0.5l-1.6-1.7l0,0.1c0,0,0,0-0.1,0c-0.3-0.1-0.5,0.1-0.6,0.3
				c-0.5,1.6-0.8,3.2-0.9,4.8c-0.1,2.4,0.3,4.8,1.2,7.1c0.1,0.2,0.3,0.3,0.5,0.3c0.1,0,0.1,0,0.2,0c0.3-0.1,0.4-0.4,0.3-0.6
				C253.7,476.6,253.4,474.4,253.4,472.1z" />
	<path class="st72" d="M253.3,465l-3-0.7c-0.1-0.1-0.2-0.1-0.4-0.2c-0.5-0.2-1.1-0.3-1.6-0.3l-0.9-0.2c0,0.1,0,0.2,0,0.2
				c-1.9,0.2-3.3,1.2-3.4,1.3c-0.5,0.4-1.4,1.2-2,2.5c-0.8,1.6-0.8,3.2-0.8,3.9c-0.4,0.4-1.1,1.4-1.4,2.9c-0.1,0.5-0.3,2.1,0.6,3.5
				c0.7,1,2.5,1.5,6.2,2.3c0.8,0.2,2.1,0.4,3.7,0.3c0-2.7,0.3-6.3,1.9-10.1c0.4-0.9,0.8-1.7,1.2-2.5l0.6-0.8
				C254.6,466.3,254.2,465.2,253.3,465z" />
	<path class="st53" d="M247.7,466.4c-0.7,0.8-2.2,2.8-2.6,5.6c-0.2,1.3-0.7,5.1,1.9,7.5c2.8,2.5,6.8,1.5,7.1,1.4" />
	<g>
		<path class="st60" d="M251.7,460.3c3.3,0.4,6-1.1,7.2-1.9c0-0.2-0.1-0.4-0.2-0.7c-0.1-0.3-0.3-0.9-0.8-1.4c-1-1.2-2.7-1.6-4-1.4
				c-1.5,0.2-2.3,1.3-3.6,2.8c-0.4,0.5-0.9,1.1-1.3,1.9C249.7,459.9,250.6,460.2,251.7,460.3z" />
	</g>
	<g class="characterEyes">
		<path class="st65" d="M258.3,460.6L258.3,460.6c-0.3,0-0.5-0.2-0.5-0.5l0,0c0-0.3,0.2-0.5,0.5-0.5h0c0.3,0,0.5,0.2,0.5,0.5l0,0
				C258.8,460.4,258.6,460.6,258.3,460.6z" />
		<path class="st65" d="M256,460.7L256,460.7c-0.3,0-0.5-0.2-0.5-0.5l0,0c0-0.3,0.2-0.5,0.5-0.5l0,0c0.3,0,0.5,0.2,0.5,0.5l0,0
				C256.5,460.5,256.3,460.7,256,460.7z" />
	</g>
	<circle class="st23" cx="252.4" cy="455.5" r="2.6" />
	<path class="st23" d="M256.4,459.4c0-1.4-1.2-2.6-2.6-2.6c-1,0-1.9,0.6-2.3,1.4c-0.5-0.4-1-0.6-1.7-0.6c-0.2,0-0.5,0-0.7,0.1
				c-0.5-0.5-1.2-0.9-2-0.9c-1.4,0-2.6,1.2-2.6,2.6c0,0.5,0.2,1.1,0.5,1.5c-0.1,0-0.1,0-0.2,0c-1.4,0-2.6,1.2-2.6,2.6
				c0,0.6,0.2,1.1,0.5,1.6c-0.1,0.3-0.2,0.6-0.2,0.9c0,1.4,1.2,2.6,2.6,2.6c1.4,0,2.5-1,2.6-2.4c0.3,0.1,0.5,0.1,0.8,0.1
				c1,0,1.9-0.6,2.3-1.4c0.4,0.3,1,0.5,1.6,0.5c1.4,0,2.6-1.2,2.6-2.6c0-0.4-0.1-0.7-0.2-1C255.7,461.4,256.4,460.4,256.4,459.4z" />
	<path class="st73" d="M251,457.9c-0.3,0.4-0.5,0.9-0.5,1.5c0,0.5,0.2,1,0.5,1.5c-0.1,0-0.1,0-0.2,0c-1.5,0-2.6,1.2-2.6,2.6
				c0,0.6,0.2,1.1,0.5,1.6c-0.1,0.3-0.2,0.4-0.2,0.7c0,0.1,0,0.2,0,0.2c0,0,0,0,0,0c-0.3,0-0.5,0.1-0.8,0c-0.1,1.3-1.2,2.5-2.6,2.5
				c-1.4,0-2.6-1.1-2.6-2.6c0-0.3,0.1-0.6,0.2-0.9c-0.3-0.4-0.5-1-0.5-1.5c0-1.4,1.2-2.6,2.6-2.6c0.1,0,0.1,0,0.2,0
				c-0.3-0.4-0.5-0.9-0.5-1.5c0-1.5,1.2-2.6,2.6-2.6c0.8,0,1.5,0.4,2,0.9c0.2-0.1,0.4-0.1,0.7-0.1C250.2,457.5,250.6,457.6,251,457.9z" />
	<g>
		<path class="st54" d="M250.7,458.3c3.9,0.5,6.9-1.7,7.7-2.3c0.2-1.1-0.5-2.1-1.3-2.9c-1.2-1.1-2.7-1.9-4.3-2.3
				c-1.6-0.4-3.3-0.2-4.8,0.5c-1.1,0.6-2.1,1.6-2.4,2.8c-0.2,1.3,0.5,2.7,1.7,3C248.1,457.7,249.3,458.2,250.7,458.3z" />
	</g>
	<path class="st74" d="M246,456.7c0.9,0.5,2.8,1.4,5.1,1.4c2.2,0,3.9-0.7,4.8-1.1c1.2-0.5,2.2-1.2,2.8-1.7" />
	<path class="st67" d="M256.2,463.5c0-0.1,0-0.3-0.1-0.4c-0.1-1,0.3-1.7,0.6-2.2c0.3,0,0.7,0,1-0.1c0.2,0.4,0.6,1,0.6,1.8
				c0,0.2,0,0.4,0,0.5c0,0-0.3,0.7-1,0.7C256.7,463.9,256.3,463.5,256.2,463.5z" />
	<g>
		<path class="st70" d="M263.3,501.3c-0.2-0.3-0.4-0.8-0.5-1.2c-0.7-6.1-3.3-11.2-6.5-12.6c-1.8-0.8-3.5-0.8-3.6-0.8
				c-0.6,0-1.2,0.1-1.8,0.3c-1.1,0.3-2,0.8-2.6,1.3c-1.1,0.8-2.6,0.6-3.4-0.4c0,0-0.1-0.1-0.1-0.1c-0.8-1.1-0.6-2.2,0.5-3
				c1.2-0.9,3.1-1.9,5.6-1.9h0c1,0,2.2-0.1,3.4,0.5c4.9,2.2,8.5,8.3,9.5,16.4C263.9,500.4,263.7,500.8,263.3,501.3z" />
	</g>
	<path class="st55 redArm" d="M337.7,449.9c0,0.8,0.1,5.6-3.6,9.2c-4.6,4.5-10.9,3.1-11.4,3" />
	<g class="marshmallow redStick">
		<line class="st75" x1="310.6" y1="455" x2="323" y2="462.4" />
		<g>
			<path class="st51" d="M319.5,460.1l-0.7,0.9c-0.2,0.2-0.5,0.3-0.8,0.1l-0.9-0.7c-0.2-0.2-0.3-0.5-0.1-0.8l0.7-0.9
				c0.2-0.2,0.5-0.3,0.8-0.1l0.9,0.7C319.6,459.5,319.6,459.9,319.5,460.1z" />
			<path class="st76" d="M318.4,460.6l-0.9-0.7c-0.2-0.2-0.3-0.5-0.1-0.8l-0.4,0.6c-0.2,0.2-0.1,0.6,0.1,0.8l0.9,0.7
				c0.2,0.2,0.6,0.1,0.8-0.1l0.4-0.6C319,460.7,318.7,460.7,318.4,460.6z" />
		</g>
		<g>
			<path class="st51" d="M314.1,456.5l-0.6,1c-0.2,0.3-0.5,0.3-0.8,0.2l-1-0.6c-0.3-0.2-0.3-0.5-0.2-0.8l0.6-1
				c0.2-0.3,0.5-0.3,0.8-0.2l1,0.6C314.2,455.9,314.3,456.2,314.1,456.5z" />
			<path class="st76" d="M313.1,457l-1-0.6c-0.3-0.2-0.3-0.5-0.2-0.8l-0.4,0.6c-0.2,0.3-0.1,0.6,0.2,0.8l1,0.6
				c0.3,0.2,0.6,0.1,0.8-0.2l0.4-0.6C313.7,457.1,313.4,457.2,313.1,457z" />
		</g>
		<g>
			<path class="st51" d="M316.5,457.8l-0.5,1.1c-0.1,0.3-0.4,0.4-0.7,0.3l-1.1-0.5c-0.3-0.1-0.4-0.4-0.3-0.7l0.5-1.1
				c0.1-0.3,0.4-0.4,0.7-0.3l1.1,0.5C316.5,457.2,316.6,457.5,316.5,457.8z" />
			<path class="st76" d="M315.6,458.5l-1.1-0.5c-0.3-0.1-0.4-0.4-0.3-0.7L314,458c-0.1,0.3,0,0.6,0.3,0.7l1.1,0.5
				c0.3,0.1,0.6,0,0.7-0.3l0.3-0.6C316.2,458.5,315.9,458.6,315.6,458.5z" />
		</g>
	</g>
	<g class="marshmallow blueStick">
		<line class="st75" x1="277.6" y1="465.5" x2="267.2" y2="472.9" />
		<g>
			<path class="st51" d="M269.1,471.2l0.8,0.9c0.2,0.2,0.5,0.2,0.8,0l0.9-0.8c0.2-0.2,0.2-0.5,0-0.8l-0.8-0.9c-0.2-0.2-0.5-0.2-0.8,0
				l-0.9,0.8C268.9,470.7,268.9,471,269.1,471.2z" />
			<path class="st76" d="M270.2,471.6l0.9-0.8c0.2-0.2,0.2-0.5,0-0.8l0.5,0.5c0.2,0.2,0.2,0.6,0,0.8l-0.9,0.8c-0.2,0.2-0.6,0.2-0.8,0
				l-0.5-0.5C269.6,471.8,270,471.8,270.2,471.6z" />
		</g>
		<g>
			<path class="st51" d="M274.1,467.2l0.7,0.9c0.2,0.2,0.5,0.3,0.8,0.1l0.9-0.7c0.2-0.2,0.3-0.5,0.1-0.8l-0.7-0.9
				c-0.2-0.2-0.5-0.3-0.8-0.1l-0.9,0.7C274,466.6,274,466.9,274.1,467.2z" />
			<path class="st76" d="M275.2,467.6l0.9-0.7c0.2-0.2,0.3-0.5,0.1-0.8l0.4,0.6c0.2,0.2,0.1,0.6-0.1,0.8l-0.9,0.7
				c-0.2,0.2-0.6,0.1-0.8-0.1l-0.4-0.6C274.6,467.8,274.9,467.8,275.2,467.6z" />
		</g>
		<g>
			<path class="st51" d="M271.9,468.7l0.6,1c0.1,0.3,0.5,0.4,0.7,0.2l1-0.6c0.3-0.1,0.4-0.5,0.2-0.7l-0.6-1c-0.1-0.3-0.5-0.4-0.7-0.2
				l-1,0.6C271.8,468.1,271.7,468.4,271.9,468.7z" />
			<path class="st76" d="M272.8,469.3l1-0.6c0.3-0.1,0.4-0.5,0.2-0.7l0.3,0.6c0.1,0.3,0,0.6-0.2,0.7l-1,0.6c-0.3,0.1-0.6,0-0.7-0.2
				l-0.3-0.6C272.3,469.4,272.6,469.5,272.8,469.3z" />
		</g>
	</g>

	<g>
	<path class="st51 starPointy" d="M389,100.5l-5.4-2.2c-0.2-0.1-0.4-0.3-0.5-0.6l-1.2-6.5c-0.1-0.8-1.3-0.8-1.5,0l-1.4,6.5
				c-0.1,0.3-0.3,0.5-0.5,0.6l-5.4,1.7c-0.7,0.2-0.7,1.2,0,1.4l5.2,2c0.2,0.1,0.4,0.3,0.5,0.6l1.2,6.9c0.1,0.8,1.3,0.8,1.5,0l1.6-7.5
				v0.3l5.7-1.9C389.6,101.8,389.6,100.8,389,100.5z" />
	<path class="st51 starSmall" d="M242.4,151l-1.4-1.4c-0.1-0.1-0.1-0.2,0-0.2l1.4-1.4c0.1-0.1,0.2-0.1,0.2,0l1.4,1.4c0.1,0.1,0.1,0.2,0,0.2
				l-1.4,1.4C242.6,151.1,242.5,151.1,242.4,151z" />
	<path class="st51 starSmall" d="M305.8,71.4l-1.4-1.4c-0.1-0.1-0.1-0.2,0-0.2l1.4-1.4c0.1-0.1,0.2-0.1,0.2,0l1.4,1.4c0.1,0.1,0.1,0.2,0,0.2
				l-1.4,1.4C305.9,71.5,305.8,71.5,305.8,71.4z" />
	<path class="st51 starSmall" d="M195.6,117.5l-1.4-1.4c-0.1-0.1-0.1-0.2,0-0.2l1.4-1.4c0.1-0.1,0.2-0.1,0.2,0l1.4,1.4c0.1,0.1,0.1,0.2,0,0.2
				l-1.4,1.4C195.8,117.5,195.7,117.5,195.6,117.5z" />
	<path class="st51 starSmall" d="M319.1,110.7l-1.4-1.4c-0.1-0.1-0.1-0.2,0-0.2l1.4-1.4c0.1-0.1,0.2-0.1,0.2,0l1.4,1.4c0.1,0.1,0.1,0.2,0,0.2
				l-1.4,1.4C319.2,110.7,319.1,110.7,319.1,110.7z" />
	<path class="st51 starSmall" d="M274.4,34.8l-1.4-1.4c-0.1-0.1-0.1-0.2,0-0.2l1.4-1.4c0.1-0.1,0.2-0.1,0.2,0l1.4,1.4c0.1,0.1,0.1,0.2,0,0.2
				l-1.4,1.4C274.5,34.9,274.4,34.9,274.4,34.8z" />
	<path class="st51 starSmall" d="M388.6,131.4l-1.4-1.4c-0.1-0.1-0.1-0.2,0-0.2l1.4-1.4c0.1-0.1,0.2-0.1,0.2,0l1.4,1.4c0.1,0.1,0.1,0.2,0,0.2
				l-1.4,1.4C388.7,131.4,388.6,131.4,388.6,131.4z" />
	<path class="st51 starSmall" d="M360.1,67.7l-1.4-1.4c-0.1-0.1-0.1-0.2,0-0.2l1.4-1.4c0.1-0.1,0.2-0.1,0.2,0l1.4,1.4c0.1,0.1,0.1,0.2,0,0.2
				l-1.4,1.4C360.2,67.8,360.1,67.8,360.1,67.7z" />
	<path class="st51 starSmall" d="M419.1,79.4l-1.4-1.4c-0.1-0.1-0.1-0.2,0-0.2l1.4-1.4c0.1-0.1,0.2-0.1,0.2,0l1.4,1.4c0.1,0.1,0.1,0.2,0,0.2
				l-1.4,1.4C419.3,79.5,419.2,79.5,419.1,79.4z" />
	<path class="st51 starSmall" d="M167.4,78.2l-1.4-1.4c-0.1-0.1-0.1-0.2,0-0.2l1.4-1.4c0.1-0.1,0.2-0.1,0.2,0l1.4,1.4c0.1,0.1,0.1,0.2,0,0.2
				l-1.4,1.4C167.5,78.3,167.4,78.3,167.4,78.2z" />
	</g>

	<g name="starCross1" class="starCross">
		<line class="st77" x1="356" y1="136.4" x2="351" y2="142.2" />
		<line class="st77" x1="356.4" y1="141.8" x2="350.6" y2="136.8" />
	</g>
	<g name="starCross2" class="starCross">
		<line class="st77" x1="262" y1="89.4" x2="257" y2="95.2" />
		<line class="st77" x1="262.4" y1="94.8" x2="256.6" y2="89.8" />
	</g>
	<g name="starCross3" class="starCross">
		<line class="st77" x1="336" y1="30.4" x2="331" y2="36.2" />
		<line class="st77" x1="336.4" y1="35.8" x2="330.6" y2="30.8" />
	</g>
	<path class="st51 starPointy" d="M224.6,60.8l-5.4-2.2c-0.2-0.1-0.4-0.3-0.5-0.6l-1.2-6.5c-0.1-0.8-1.3-0.8-1.5,0l-1.4,6.5
				c-0.1,0.3-0.3,0.5-0.5,0.6l-5.4,1.7c-0.7,0.2-0.7,1.2,0,1.4l5.2,2c0.2,0.1,0.4,0.3,0.5,0.6l1.2,6.9c0.1,0.8,1.3,0.8,1.5,0l1.6-7.5
				v0.3l5.7-1.9C225.3,62,225.3,61.1,224.6,60.8z" />
</svg>